<svg width="116" height="12" viewBox="0 0 116 12" fill="none" xmlns="http://www.w3.org/2000/svg">
<path d="M50.9995 11.3943H49.3555V7.55293H50.9995C51.3083 7.53735 51.6122 7.63169 51.8529 7.81785C51.9582 7.90314 52.0418 8.01042 52.0973 8.13148C52.1528 8.25253 52.1786 8.38416 52.1729 8.51628C52.174 8.71673 52.1006 8.91099 51.9659 9.06419C51.8404 9.21853 51.6589 9.32174 51.4576 9.35319C51.708 9.37349 51.9422 9.48049 52.1165 9.65424C52.2845 9.82697 52.3746 10.0563 52.3675 10.2925C52.3754 10.4438 52.3466 10.5949 52.2835 10.7339C52.2203 10.8728 52.1245 10.9958 52.0035 11.0932C51.7164 11.3042 51.3607 11.4109 50.9995 11.3943ZM49.9767 8.03461V9.20869H50.7109C50.9321 9.22275 51.1522 9.16784 51.3384 9.05215C51.4098 9.00181 51.4672 8.93539 51.5055 8.85873C51.5438 8.78208 51.5618 8.69755 51.558 8.61262C51.5627 8.53552 51.5487 8.45843 51.5171 8.38739C51.4856 8.31636 51.4373 8.25331 51.376 8.20319C51.2249 8.09901 51.041 8.04798 50.8552 8.05869L49.9767 8.03461ZM49.9767 10.9066H50.874C51.096 10.9189 51.3162 10.8618 51.5015 10.744C51.5755 10.6877 51.6341 10.615 51.6724 10.5322C51.7107 10.4493 51.7274 10.3588 51.7211 10.2684C51.7273 10.1782 51.7098 10.088 51.6704 10.006C51.6309 9.92401 51.5707 9.85275 51.4952 9.79874C51.2958 9.68177 51.0634 9.62707 50.8301 9.6422H49.9955L49.9767 10.9066Z" fill="#C4C4C4"/>
<path d="M54.9691 11.3955H54.3416V9.81197L52.9297 7.54199H53.6262L54.649 9.23996L55.6719 7.54199H56.3621L54.9691 9.81197V11.3955Z" fill="#C4C4C4"/>
<path d="M58.8203 7.55478H60.2573C60.5145 7.54032 60.7719 7.57787 61.013 7.665C61.254 7.75213 61.4733 7.88689 61.6566 8.06055C62.0113 8.45055 62.1916 8.95887 62.1586 9.47549C62.1913 9.9939 62.0111 10.504 61.6566 10.8965C61.4743 11.0718 61.2554 11.2081 61.0142 11.2963C60.7729 11.3845 60.515 11.4227 60.2573 11.4082H58.8203V7.55478ZM59.4478 8.06657V10.8784H60.2008C60.3815 10.8895 60.5625 10.8629 60.7315 10.8006C60.9005 10.7382 61.0534 10.6415 61.1797 10.5171C61.4239 10.2225 61.5448 9.85108 61.5186 9.47549C61.5448 9.0999 61.4239 8.72846 61.1797 8.43385C61.0534 8.30945 60.9005 8.21275 60.7315 8.1504C60.5625 8.08804 60.3815 8.0615 60.2008 8.07259L59.4478 8.06657Z" fill="#C4C4C4"/>
<path d="M65.6312 10.8783V11.3961H63.0898V7.55469H65.6312V8.06648H63.711V9.21048H65.5308V9.70421H63.711V10.9084L65.6312 10.8783Z" fill="#C4C4C4"/>
<path d="M67.2173 11.3962H66.5898V7.55469H67.1546L69.2504 10.4147V7.55469H69.8779V11.4022H69.3194L67.2424 8.56623L67.2173 11.3962Z" fill="#C4C4C4"/>
<path d="M71.5806 11.3961H70.9531V7.55469H71.5806V11.3961Z" fill="#C4C4C4"/>
<path d="M72.4844 10.323H73.1119C73.1207 10.416 73.152 10.5057 73.2031 10.5852C73.2543 10.6646 73.3241 10.7315 73.4068 10.7806C73.6027 10.902 73.8327 10.9629 74.0657 10.9552C74.2882 10.9644 74.508 10.9054 74.6932 10.7866C74.7682 10.7409 74.83 10.6778 74.8728 10.603C74.9156 10.5283 74.938 10.4444 74.9379 10.3591C74.9399 10.2891 74.9251 10.2195 74.8946 10.1559C74.8641 10.0922 74.8188 10.0361 74.7622 9.99184C74.5946 9.87414 74.4016 9.79391 74.1975 9.75702L73.6767 9.6366C73.3739 9.5836 73.0919 9.45246 72.8609 9.25727C72.7729 9.17076 72.7041 9.06796 72.6588 8.95513C72.6135 8.8423 72.5926 8.72181 72.5974 8.60098C72.5942 8.44515 72.6295 8.29081 72.7004 8.15058C72.7712 8.01035 72.8757 7.88821 73.0053 7.79416C73.3081 7.57547 73.6808 7.46477 74.0594 7.48107C74.4321 7.46597 74.7985 7.57676 75.0948 7.79416C75.2169 7.89402 75.3141 8.01888 75.3792 8.15955C75.4444 8.30022 75.4758 8.45312 75.4713 8.607H74.8438C74.8383 8.51816 74.8125 8.43159 74.768 8.35351C74.7235 8.27542 74.6615 8.20777 74.5865 8.15542C74.4097 8.0491 74.2053 7.99271 73.9967 7.99271C73.788 7.99271 73.5836 8.0491 73.4068 8.15542C73.3363 8.2013 73.2787 8.26328 73.2393 8.33579C73.1998 8.40831 73.1798 8.48909 73.1809 8.57087C73.1797 8.63502 73.1944 8.69853 73.2239 8.75612C73.2534 8.81372 73.2967 8.86374 73.3504 8.90203C73.519 9.01161 73.7089 9.08739 73.9088 9.12481L74.3481 9.22717C74.6754 9.28121 74.9825 9.41609 75.2391 9.61853C75.3318 9.70612 75.4042 9.8114 75.4518 9.92757C75.4994 10.0437 75.521 10.1682 75.5152 10.2929C75.5221 10.4567 75.4881 10.6198 75.4161 10.7685C75.3441 10.9173 75.2361 11.0473 75.1011 11.1479C74.7725 11.3723 74.3742 11.4827 73.9716 11.461C73.584 11.4786 73.2016 11.3704 72.886 11.1539C72.7589 11.0528 72.6569 10.9257 72.5875 10.782C72.518 10.6382 72.4828 10.4814 72.4844 10.323Z" fill="#C4C4C4"/>
<path d="M79.7534 11.3948H78.1094V7.55342H79.7534C80.0622 7.53784 80.3661 7.63218 80.6068 7.81835C80.7121 7.90364 80.7957 8.01092 80.8512 8.13198C80.9067 8.25303 80.9326 8.38466 80.9269 8.51679C80.9279 8.71724 80.8545 8.9115 80.7198 9.0647C80.5959 9.21776 80.4168 9.32084 80.2178 9.35371C80.4682 9.37401 80.7024 9.48101 80.8766 9.65477C81.0446 9.8275 81.1348 10.0568 81.1276 10.293C81.1355 10.4444 81.1068 10.5955 81.0436 10.7344C80.9805 10.8733 80.8847 10.9963 80.7637 11.0938C80.4749 11.3061 80.1168 11.4129 79.7534 11.3948ZM78.7306 8.0351V9.20921H79.4648C79.6861 9.22327 79.9061 9.16836 80.0923 9.05266C80.1625 9.00167 80.2187 8.93495 80.2559 8.85834C80.2931 8.78172 80.3101 8.69753 80.3056 8.61313C80.3103 8.53603 80.2963 8.45893 80.2648 8.3879C80.2332 8.31686 80.1849 8.25381 80.1237 8.20369C79.9725 8.09951 79.7886 8.04848 79.6028 8.05919L78.7306 8.0351ZM78.7306 10.9071H79.6279C79.8499 10.9194 80.0701 10.8624 80.2554 10.7446C80.3294 10.6883 80.388 10.6156 80.4263 10.5327C80.4646 10.4499 80.4813 10.3593 80.4751 10.2689C80.4812 10.1788 80.4637 10.0886 80.4243 10.0066C80.3848 9.92454 80.3246 9.85328 80.2491 9.79927C80.0498 9.68192 79.8173 9.62719 79.584 9.64272H78.7306V10.9071Z" fill="#C4C4C4"/>
<path d="M84.5492 10.8783V11.3961H82.0078V7.55469H84.5492V8.06648H82.6228V9.21048H84.4425V9.70421H82.6228V10.9084L84.5492 10.8783Z" fill="#C4C4C4"/>
<path d="M88.0217 10.8783V11.3961H85.5117V7.55469H86.1392V10.8843L88.0217 10.8783Z" fill="#C4C4C4"/>
<path d="M90.04 11.3961H89.4126V9.81259L88.0195 7.55469H88.716L89.7388 9.25263L90.7616 7.55469H91.4519L90.04 9.81259V11.3961Z" fill="#C4C4C4"/>
<path d="M94.3272 11.3949L93.9632 10.3532H92.4133L92.0494 11.3949H91.4219L92.8714 7.54736H93.5428L94.9923 11.3949H94.3272ZM93.1914 8.19162L92.5639 9.87754H93.775L93.1475 8.19162H93.1914Z" fill="#C4C4C4"/>
<path d="M96.3931 11.3962H95.7656V7.55469H96.3931V9.36102L98.0685 7.55469H98.8089L97.2214 9.25866L98.9407 11.4022H98.1689L96.8073 9.6681L96.3931 10.1197V11.3962Z" fill="#C4C4C4"/>
<path d="M101.272 7.48695C101.527 7.4756 101.782 7.51766 102.018 7.61021C102.254 7.70276 102.466 7.84357 102.64 8.02285C102.996 8.42684 103.178 8.94583 103.148 9.47399C103.178 10.0022 102.996 10.5211 102.64 10.9251C102.273 11.2669 101.781 11.458 101.269 11.458C100.757 11.458 100.266 11.2669 99.898 10.9251C99.5423 10.5211 99.3605 10.0022 99.3898 9.47399C99.3611 8.94591 99.5428 8.42714 99.898 8.02285C100.073 7.84277 100.286 7.70149 100.523 7.60892C100.761 7.51634 101.016 7.47472 101.272 7.48695ZM101.272 8.01081C101.099 8.0042 100.926 8.03671 100.768 8.10573C100.61 8.17475 100.471 8.27835 100.362 8.40822C100.126 8.71559 100.008 9.09244 100.03 9.47399C100.008 9.85561 100.125 10.2326 100.362 10.5398C100.475 10.6638 100.615 10.7632 100.771 10.8313C100.928 10.8994 101.097 10.9346 101.269 10.9346C101.441 10.9346 101.611 10.8994 101.767 10.8313C101.923 10.7632 102.063 10.6638 102.176 10.5398C102.413 10.2326 102.531 9.85561 102.508 9.47399C102.531 9.09238 102.413 8.71536 102.176 8.40822C102.069 8.27772 101.931 8.17321 101.774 8.10314C101.617 8.03306 101.445 7.99937 101.272 8.00479V8.01081Z" fill="#C4C4C4"/>
<path d="M105.749 11.3949H105.071L103.641 7.54736H104.331L105.423 10.7205L106.515 7.54736H107.18L105.749 11.3949Z" fill="#C4C4C4"/>
<path d="M0.96875 0.534668L0.968751 11.9805" stroke="#C4C4C4" stroke-width="1.14458" stroke-miterlimit="10"/>
<path d="M10.7422 1.00227H12.1792C12.4319 0.988567 12.6849 1.02597 12.9216 1.11206C13.1583 1.19815 13.3736 1.33101 13.5534 1.50203C13.905 1.88861 14.0832 2.39287 14.0491 2.90496C14.0829 3.41961 13.9074 3.92679 13.5597 4.31992C13.3794 4.49203 13.1631 4.62555 12.9252 4.71169C12.6873 4.79782 12.433 4.83463 12.1792 4.81968H10.7485L10.7422 1.00227ZM11.3697 1.54418V4.27176H12.0913C12.2699 4.28109 12.4485 4.25369 12.6152 4.19138C12.7819 4.12908 12.9327 4.0333 13.0577 3.91049C13.3026 3.62772 13.4261 3.26597 13.4028 2.89894C13.4247 2.53573 13.3013 2.1782 13.0577 1.89943C12.9327 1.77661 12.7819 1.68084 12.6152 1.61853C12.4485 1.55622 12.2699 1.52882 12.0913 1.53816L11.3697 1.54418Z" fill="#C4C4C4"/>
<path d="M15.776 4.81327H15.1484V1.00195H15.776V4.81327Z" fill="#C4C4C4"/>
<path d="M20.444 3.30324C20.4552 3.51819 20.4197 3.73302 20.3397 3.9341C20.2598 4.13519 20.1372 4.31814 19.9797 4.47136C19.8112 4.6202 19.6133 4.73522 19.3978 4.80966C19.1823 4.88411 18.9535 4.91649 18.7247 4.90489C18.473 4.91565 18.222 4.87262 17.9898 4.7789C17.7575 4.68518 17.5499 4.54312 17.3819 4.36298C17.0326 3.95149 16.8558 3.42975 16.8862 2.89982C16.8579 2.37099 17.037 1.85117 17.3882 1.44268C17.5543 1.26348 17.7597 1.12192 17.9898 1.0282C18.2199 0.934487 18.4687 0.890961 18.7184 0.900769C19.1268 0.88732 19.5276 1.00844 19.8542 1.24398C20.1574 1.47033 20.3575 1.80046 20.4127 2.16523H19.7852C19.7218 1.95143 19.5846 1.76461 19.3961 1.63536C19.193 1.50888 18.9541 1.44578 18.7122 1.45472C18.547 1.4512 18.3833 1.48475 18.234 1.5527C18.0848 1.62065 17.9541 1.72112 17.8525 1.8461C17.6214 2.14893 17.5062 2.51895 17.5262 2.8938C17.5053 3.27248 17.6205 3.64656 17.8525 3.95354C17.9577 4.08077 18.0925 4.18248 18.2462 4.25047C18.3999 4.31846 18.5681 4.35081 18.7373 4.34492C19.0283 4.3568 19.3132 4.26209 19.5342 4.07998C19.634 3.99492 19.7132 3.88994 19.7663 3.77242C19.8195 3.65489 19.8452 3.52764 19.8417 3.39958V3.31528H18.8188V2.82756H20.4503L20.444 3.30324Z" fill="#C4C4C4"/>
<path d="M22.19 4.81327H21.5625V1.00195H22.19V4.81327Z" fill="#C4C4C4"/>
<path d="M25.0856 4.81327H24.4581V1.53783H23.2031V1.00195H26.3406V1.54385H25.0856V4.81327Z" fill="#C4C4C4"/>
<path d="M29.4927 4.81403L29.1287 3.79042H27.6165L27.2525 4.78994H26.625L28.062 0.978516H28.6895L30.1265 4.78994L29.4927 4.81403ZM28.3506 1.69504L27.7796 3.29066H28.9781L28.4071 1.68902L28.3506 1.69504Z" fill="#C4C4C4"/>
<path d="M33.5958 4.27138V4.81327H31.1172V1.00195H31.7447V4.27138H33.5958Z" fill="#C4C4C4"/>
<path d="M38.1185 4.9051C37.8719 4.91638 37.6259 4.87404 37.3988 4.78125C37.1717 4.68845 36.9694 4.5476 36.807 4.36922C36.4649 3.95464 36.293 3.43408 36.3239 2.90608C36.2941 2.37821 36.4659 1.85805 36.807 1.44294C36.9694 1.26456 37.1717 1.12371 37.3988 1.03091C37.6259 0.938115 37.8719 0.895775 38.1185 0.907057C38.5247 0.896474 38.9213 1.02689 39.2354 1.27435C39.5368 1.51172 39.7284 1.85356 39.7688 2.22569H39.1413C39.0898 2.00327 38.9588 1.80516 38.7711 1.66572C38.5773 1.5282 38.3405 1.45812 38.0997 1.46702C37.936 1.46148 37.7733 1.49421 37.6258 1.56239C37.4782 1.63057 37.3501 1.73216 37.2525 1.8584C37.0277 2.16816 36.9172 2.54119 36.9388 2.91812C36.9187 3.29303 37.029 3.66371 37.2525 3.97182C37.3512 4.09463 37.4789 4.19309 37.6251 4.25906C37.7714 4.32503 37.9319 4.3566 38.0934 4.35115C38.3327 4.35645 38.5677 4.28901 38.7648 4.15848C38.9504 4.0382 39.0825 3.85564 39.135 3.64668H39.7625C39.7403 3.82445 39.6818 3.99626 39.5902 4.15228C39.4987 4.30829 39.376 4.44545 39.2291 4.55587C38.912 4.79181 38.5196 4.9152 38.1185 4.9051Z" fill="#C4C4C4"/>
<path d="M42.5484 0.905835C42.8015 0.893786 43.0543 0.935579 43.2886 1.02822C43.5229 1.12086 43.733 1.26207 43.9038 1.44172C44.2522 1.85136 44.4289 2.37089 44.3995 2.89885C44.4379 3.43895 44.2607 3.97282 43.9038 4.39211C43.7255 4.56343 43.5137 4.69934 43.2806 4.79206C43.0475 4.88479 42.7976 4.93252 42.5453 4.93252C42.2929 4.93252 42.043 4.88479 41.8099 4.79206C41.5768 4.69934 41.365 4.56343 41.1867 4.39211C40.8368 3.98091 40.66 3.45897 40.691 2.92896C40.6621 2.40005 40.8413 1.88002 41.193 1.47183C41.3611 1.28704 41.5699 1.14041 41.8043 1.04252C42.0387 0.944637 42.2929 0.89795 42.5484 0.905835ZM42.5484 1.45979C42.3773 1.45531 42.2075 1.4895 42.0527 1.55957C41.898 1.62965 41.7625 1.73366 41.6573 1.86321C41.4216 2.16641 41.304 2.53919 41.3248 2.91692C41.3038 3.29374 41.419 3.66595 41.6511 3.97063C41.857 4.19758 42.1482 4.33703 42.461 4.35847C42.7738 4.37991 43.0828 4.2816 43.3202 4.08503L43.4395 3.97063C43.6715 3.66595 43.7867 3.29374 43.7657 2.91692C43.796 2.54089 43.6896 2.16641 43.4645 1.85719C43.3566 1.72497 43.2168 1.61978 43.0573 1.55058C42.8978 1.48138 42.7232 1.45023 42.5484 1.45979Z" fill="#C4C4C4"/>
<path d="M46.0906 4.81327H45.5195V1.00195H46.2412L47.4962 3.89807H47.5401L48.7951 1.00195H49.5167V4.81327H48.952V2.06166H48.9143L47.7472 4.70489H47.2765L46.1094 2.06166H46.0717L46.0906 4.81327Z" fill="#C4C4C4"/>
<path d="M51.3913 4.81327H50.8203V1.00195H51.5419L52.7969 3.89807H52.8785L54.1335 1.00195H54.8551V4.81327H54.2841V2.06166H54.2464L53.0793 4.70489H52.6087L51.4415 2.06166H51.4039L51.3913 4.81327Z" fill="#C4C4C4"/>
<path d="M56.7519 1.00195V3.44652C56.7464 3.56743 56.767 3.68813 56.8123 3.80107C56.8577 3.914 56.9268 4.01673 57.0155 4.10282C57.2218 4.26472 57.48 4.35318 57.7465 4.35318C58.013 4.35318 58.2713 4.26472 58.4776 4.10282C58.5662 4.01673 58.6354 3.914 58.6807 3.80107C58.7261 3.68813 58.7466 3.56743 58.7411 3.44652V1.00195H59.3686V3.50071C59.3757 3.69063 59.3402 3.8798 59.2644 4.05538C59.1886 4.23096 59.0744 4.38883 58.9294 4.51828C58.596 4.77328 58.1823 4.91214 57.7559 4.91214C57.3296 4.91214 56.9159 4.77328 56.5825 4.51828C56.4387 4.38829 56.3255 4.23017 56.2509 4.05462C56.1762 3.87907 56.1416 3.69018 56.1496 3.50071V1.00195H56.7519Z" fill="#C4C4C4"/>
<path d="M61.2369 4.81327H60.6094V1.00195H61.1678L63.2072 3.71142H63.2511V1.00195H63.8786V4.81327H63.3202L61.2745 2.10982H61.2306L61.2369 4.81327Z" fill="#C4C4C4"/>
<path d="M65.7759 4.81327H65.1484V1.00195H65.7759V4.81327Z" fill="#C4C4C4"/>
<path d="M68.6794 4.90516C68.4318 4.91737 68.1846 4.87548 67.9563 4.78265C67.7281 4.68982 67.5248 4.54848 67.3617 4.36927C67.0196 3.95469 66.8477 3.43412 66.8785 2.90611C66.8488 2.37824 67.0206 1.85806 67.3617 1.44295C67.5241 1.26457 67.7264 1.12371 67.9535 1.03091C68.1806 0.938116 68.4266 0.895775 68.6732 0.907057C69.0794 0.896473 69.476 1.02689 69.7901 1.27435C70.0915 1.51173 70.2831 1.85358 70.3235 2.22571H69.696C69.6445 2.00329 69.5135 1.80518 69.3258 1.66573C69.1322 1.52777 68.8952 1.45764 68.6543 1.46703C68.4907 1.46149 68.328 1.49422 68.1804 1.5624C68.0329 1.63058 67.9048 1.73217 67.8072 1.85841C67.5824 2.16818 67.4719 2.54121 67.4935 2.91815C67.4733 3.29307 67.5837 3.66376 67.8072 3.97187C67.9058 4.09859 68.0349 4.20042 68.1836 4.2686C68.3323 4.33678 68.496 4.36927 68.6606 4.36325C68.9 4.36854 69.135 4.3011 69.332 4.17057C69.5153 4.04922 69.6451 3.86679 69.696 3.65877H70.3235C70.3013 3.83653 70.2427 4.00835 70.1512 4.16437C70.0597 4.32039 69.937 4.45754 69.7901 4.56797C69.4713 4.79961 69.0791 4.9187 68.6794 4.90516Z" fill="#C4C4C4"/>
<path d="M73.8794 4.81403L73.5154 3.79042H72.0032L71.6392 4.78994H71.0117L72.4487 0.978516H73.1138L74.5508 4.78994L73.8794 4.81403ZM72.7373 1.69504L72.16 3.29668H73.3586L72.7813 1.69504H72.7373Z" fill="#C4C4C4"/>
<path d="M76.6794 4.81327H76.0519V1.53783H74.7969V1.00195H77.9344V1.54385H76.6794V4.81327Z" fill="#C4C4C4"/>
<path d="M79.5806 4.81327H78.9531V1.00195H79.5806V4.81327Z" fill="#C4C4C4"/>
<path d="M82.5562 0.905835C82.8093 0.893786 83.0621 0.935579 83.2964 1.02822C83.5307 1.12086 83.7408 1.26207 83.9116 1.44172C84.2599 1.85136 84.4367 2.37088 84.4073 2.89884C84.4376 3.42877 84.2609 3.9505 83.9116 4.36199C83.7332 4.53331 83.5215 4.66921 83.2884 4.76194C83.0552 4.85467 82.8054 4.90239 82.553 4.90239C82.3007 4.90239 82.0508 4.85467 81.8177 4.76194C81.5846 4.66921 81.3728 4.53331 81.1945 4.36199C80.8447 3.95079 80.6678 3.42885 80.6988 2.89884C80.6699 2.36994 80.8491 1.84991 81.2008 1.44172C81.3719 1.2624 81.582 1.12142 81.8162 1.02881C82.0505 0.93619 82.3031 0.894205 82.5562 0.905835ZM82.5562 1.45978C82.3851 1.45531 82.2153 1.48949 82.0605 1.55957C81.9058 1.62965 81.7703 1.73365 81.6651 1.8632C81.4295 2.1664 81.3118 2.53919 81.3326 2.91691C81.3121 3.29367 81.4273 3.66572 81.6589 3.97061C81.8648 4.19757 82.156 4.33702 82.4688 4.35846C82.7816 4.3799 83.0905 4.28158 83.328 4.08502L83.4472 3.97061C83.6788 3.66572 83.794 3.29367 83.7735 2.91691C83.7975 2.53603 83.682 2.15909 83.4472 1.85116C83.3411 1.72345 83.2051 1.62149 83.0503 1.5535C82.8956 1.48552 82.7263 1.45341 82.5562 1.45978Z" fill="#C4C4C4"/>
<path d="M86.1392 4.81327H85.5117V1.00195H86.0702L88.1096 3.71142H88.1535V1.00195H88.781V4.81327H88.2225L86.1392 2.1038V4.81327Z" fill="#C4C4C4"/>
<path d="M94.438 4.81403L94.074 3.79042H92.5617L92.1978 4.78994H91.5703L93.0073 0.978516H93.6661L95.1031 4.78994L94.438 4.81403ZM93.2959 1.69504L92.7186 3.29668H93.9171L93.3399 1.69504H93.2959Z" fill="#C4C4C4"/>
<path d="M99.2722 3.30324C99.2833 3.51819 99.2478 3.73302 99.1679 3.9341C99.0879 4.13519 98.9653 4.31814 98.8078 4.47136C98.6393 4.6202 98.4414 4.73522 98.2259 4.80966C98.0104 4.88411 97.7816 4.91649 97.5528 4.90489C97.3012 4.91565 97.0501 4.87262 96.8179 4.7789C96.5856 4.68518 96.378 4.54312 96.21 4.36298C95.8607 3.95149 95.6839 3.42975 95.7143 2.89982C95.6849 2.37185 95.8616 1.85232 96.21 1.44268C96.3761 1.26348 96.5816 1.12192 96.8117 1.0282C97.0417 0.934487 97.2906 0.890961 97.5403 0.900769C97.9486 0.88732 98.3494 1.00844 98.6761 1.24398C98.9792 1.47033 99.1793 1.80046 99.2345 2.16523H98.607C98.5436 1.95143 98.4065 1.76461 98.218 1.63536C98.0149 1.50888 97.776 1.44578 97.534 1.45472C97.3668 1.44929 97.2005 1.48192 97.0489 1.54995C96.8973 1.61797 96.7647 1.71946 96.6618 1.8461C96.4307 2.14893 96.3155 2.51895 96.3355 2.8938C96.3131 3.27451 96.4284 3.65095 96.6618 3.95956C96.767 4.08679 96.9019 4.1885 97.0555 4.25649C97.2092 4.32448 97.3774 4.35683 97.5466 4.35094C97.8377 4.36343 98.1228 4.26865 98.3435 4.086C98.4456 4.00207 98.5272 3.8976 98.5825 3.78002C98.6378 3.66243 98.6655 3.5346 98.6635 3.4056V3.32131H97.6407V2.82756H99.2722V3.30324Z" fill="#C4C4C4"/>
<path d="M102.924 4.27145V4.80734H100.414V1.00195H102.924V1.54386H101.042V2.62165H102.842V3.13345H101.042V4.27748L102.924 4.27145Z" fill="#C4C4C4"/>
<path d="M104.694 4.81327H104.066V1.00195H104.625L106.664 3.71142H106.708V1.00195H107.336V4.81327H106.777L104.738 2.10982H104.694V4.81327Z" fill="#C4C4C4"/>
<path d="M110.244 4.90522C109.997 4.9165 109.751 4.87416 109.524 4.78137C109.297 4.68857 109.094 4.54772 108.932 4.36934C108.59 3.95476 108.418 3.43421 108.449 2.9062C108.419 2.37834 108.591 1.85817 108.932 1.44306C109.094 1.26468 109.297 1.12383 109.524 1.03103C109.751 0.938237 109.997 0.895897 110.244 0.90718C110.65 0.896596 111.046 1.02701 111.36 1.27447C111.662 1.51184 111.854 1.85369 111.894 2.22581H111.266C111.215 2.0034 111.084 1.80528 110.896 1.66584C110.703 1.52789 110.466 1.45776 110.225 1.46715C110.061 1.4616 109.898 1.49433 109.751 1.56251C109.603 1.63069 109.475 1.73228 109.378 1.85852C109.153 2.16828 109.042 2.54131 109.064 2.91824C109.044 3.29315 109.154 3.66384 109.378 3.97194C109.476 4.09866 109.605 4.20049 109.754 4.26867C109.903 4.33685 110.066 4.36933 110.231 4.36332C110.47 4.36861 110.705 4.30117 110.902 4.17064C111.086 4.04929 111.215 3.86687 111.266 3.65884H111.894C111.872 3.83661 111.813 4.00842 111.722 4.16444C111.63 4.32046 111.507 4.45761 111.36 4.56804C111.04 4.801 110.645 4.92016 110.244 4.90522Z" fill="#C4C4C4"/>
<path d="M114.604 4.81297H113.977V3.27157L112.59 0.995605H113.274L114.272 2.64538H114.315L115.313 0.995605H115.997L114.598 3.27157L114.604 4.81297Z" fill="#C4C4C4"/>
<path d="M10.5469 10.281H11.1744C11.1869 10.3698 11.2198 10.4547 11.2708 10.5297C11.3218 10.6047 11.3897 10.6679 11.4693 10.7145C11.6586 10.8237 11.876 10.88 12.0968 10.8771C12.3187 10.8885 12.5386 10.8315 12.7243 10.7145C12.7993 10.6702 12.8611 10.6082 12.904 10.5344C12.9468 10.4606 12.9692 10.3775 12.969 10.2931C12.9703 10.2242 12.9544 10.1561 12.9228 10.0943C12.8911 10.0326 12.8446 9.97891 12.7871 9.93781C12.61 9.82161 12.4087 9.74356 12.1972 9.70901L11.6827 9.58859C11.3888 9.53672 11.1166 9.40507 10.8983 9.20927C10.7251 9.0251 10.6349 8.78268 10.6473 8.53491C10.6416 8.37824 10.6745 8.22248 10.7432 8.08023C10.8118 7.93799 10.9144 7.81323 11.0426 7.71605C11.343 7.49734 11.7138 7.38655 12.0905 7.40296C12.4522 7.39017 12.8073 7.49876 13.0945 7.71003C13.2207 7.80377 13.3238 7.92305 13.3965 8.05938C13.4692 8.19572 13.5096 8.34574 13.515 8.49879H12.8875C12.8753 8.41527 12.845 8.33513 12.7985 8.26356C12.7521 8.19199 12.6904 8.13059 12.6176 8.08333C12.4486 7.97668 12.2487 7.924 12.0466 7.93281C11.8376 7.92316 11.6309 7.97803 11.4568 8.08936C11.3858 8.13484 11.3279 8.19674 11.2884 8.26934C11.2489 8.34195 11.2292 8.42293 11.2309 8.50481C11.2296 8.56896 11.2444 8.63246 11.2738 8.69006C11.3033 8.74765 11.3466 8.79767 11.4003 8.83596C11.5691 8.94402 11.7591 9.01778 11.9588 9.05272L12.398 9.15508C12.7214 9.20978 13.0243 9.3447 13.2765 9.54644C13.374 9.63518 13.4508 9.74282 13.5016 9.8622C13.5525 9.98158 13.5763 10.11 13.5714 10.2389C13.5776 10.405 13.5427 10.5701 13.4696 10.7208C13.3966 10.8715 13.2874 11.0034 13.151 11.1059C12.8283 11.3329 12.4336 11.4456 12.0341 11.425C11.6507 11.4409 11.2728 11.3327 10.961 11.1179C10.8308 11.0173 10.7259 10.8898 10.6542 10.7449C10.5825 10.6 10.5458 10.4414 10.5469 10.281Z" fill="#C4C4C4"/>
<path d="M15.3072 11.3096H14.6797V7.49805H15.3072V11.3096Z" fill="#C4C4C4"/>
<path d="M17.1875 11.3096H16.5977V7.49805H17.1561L19.1955 10.2077H19.2394V7.49805H19.8669V11.3096H19.3084L17.2252 8.60599H17.1812L17.1875 11.3096Z" fill="#C4C4C4"/>
<path d="M22.7591 11.4021C22.5126 11.4129 22.2668 11.3704 22.0397 11.2776C21.8127 11.1848 21.6103 11.0442 21.4477 10.8662C21.1055 10.4516 20.9336 9.93109 20.9645 9.4031C20.9348 8.87525 21.1065 8.35509 21.4477 7.94C21.61 7.76162 21.8124 7.62077 22.0395 7.52798C22.2666 7.43518 22.5126 7.39285 22.7591 7.40413C23.1654 7.39354 23.562 7.52396 23.8761 7.77141C24.1775 8.00878 24.3691 8.35061 24.4095 8.72273H23.782C23.7305 8.50032 23.5995 8.30221 23.4117 8.16277C23.218 8.02526 22.9812 7.95518 22.7403 7.96408C22.5766 7.95854 22.414 7.99127 22.2664 8.05944C22.1188 8.12762 21.9907 8.22921 21.8932 8.35544C21.6683 8.6652 21.5579 9.03821 21.5794 9.41514C21.5593 9.79004 21.6697 10.1607 21.8932 10.4688C21.9917 10.5955 22.1209 10.6974 22.2696 10.7655C22.4182 10.8337 22.5819 10.8662 22.7466 10.8602C22.986 10.8655 23.221 10.798 23.418 10.6675C23.6013 10.5462 23.731 10.3637 23.782 10.1557H24.4095C24.3873 10.3335 24.3287 10.5053 24.2372 10.6613C24.1457 10.8173 24.023 10.9545 23.8761 11.0649C23.5556 11.2979 23.1609 11.417 22.7591 11.4021Z" fill="#C4C4C4"/>
<path d="M27.9944 10.7677V11.3096H25.4844V7.49805H27.9944V8.03997H26.1119V9.11781H27.9128V9.6236H26.1119V10.7677H27.9944Z" fill="#C4C4C4"/>
<path d="M30.9186 8.60756C30.9131 8.44649 30.9439 8.28618 31.0089 8.13758C31.0738 7.98898 31.1715 7.85558 31.2951 7.7465C31.557 7.51815 31.9016 7.39713 32.2552 7.4093C32.5978 7.39594 32.9333 7.50541 33.1964 7.71639C33.3156 7.81165 33.4109 7.93154 33.475 8.0671C33.5391 8.20265 33.5704 8.35036 33.5667 8.49917C33.5631 8.71272 33.4979 8.92114 33.3784 9.10132C33.1811 9.38559 32.9517 9.64811 32.6944 9.8841L31.8096 10.7391V10.7813H33.6294V11.3112H30.9186V10.8837L32.2615 9.54088C32.4558 9.35588 32.6322 9.15434 32.7886 8.93874C32.8731 8.81523 32.9188 8.67101 32.9203 8.52326C32.9221 8.43981 32.9045 8.35704 32.8686 8.28098C32.8328 8.20493 32.7797 8.13752 32.7133 8.08369C32.5705 7.96579 32.3869 7.90349 32.1987 7.90907C32.1013 7.90465 32.004 7.91888 31.9124 7.95093C31.8209 7.98298 31.7369 8.03221 31.6653 8.09574C31.5968 8.1596 31.543 8.23653 31.5073 8.32157C31.4716 8.40661 31.4549 8.49788 31.4582 8.58949H30.9186V8.60756Z" fill="#C4C4C4"/>
<path d="M36.1001 11.4005C35.8877 11.4086 35.6767 11.3647 35.4868 11.2731C35.2969 11.1815 35.1344 11.0451 35.0145 10.8767C34.7304 10.4348 34.5946 9.91983 34.6255 9.40147C34.5943 8.88497 34.7302 8.37185 35.0145 7.93228C35.1386 7.76929 35.301 7.6367 35.4885 7.54529C35.6761 7.45389 35.8835 7.40625 36.0938 7.40625C36.3041 7.40625 36.5115 7.45389 36.6991 7.54529C36.8866 7.6367 37.049 7.76929 37.1731 7.93228C37.4579 8.37387 37.5938 8.88905 37.5621 9.40749C37.5934 9.92589 37.4575 10.441 37.1731 10.8827C37.0536 11.0482 36.8928 11.1823 36.7053 11.2728C36.5179 11.3632 36.3098 11.4072 36.1001 11.4005ZM35.4726 10.4973C35.5276 10.6126 35.616 10.7103 35.7273 10.7788C35.8385 10.8473 35.9679 10.8837 36.1001 10.8837C36.2322 10.8837 36.3616 10.8473 36.4729 10.7788C36.5841 10.7103 36.6725 10.6126 36.7276 10.4973C36.8884 10.1515 36.9595 9.77341 36.9346 9.39545C36.9563 9.01839 36.8809 8.64203 36.715 8.29958C36.66 8.18428 36.5716 8.08657 36.4603 8.01808C36.3491 7.94958 36.2197 7.91316 36.0875 7.91316C35.9554 7.91316 35.826 7.94958 35.7147 8.01808C35.6035 8.08657 35.5151 8.18428 35.46 8.29958C35.291 8.64119 35.2134 9.01782 35.2341 9.39545C35.2161 9.77546 35.2959 10.1539 35.4663 10.4973H35.4726Z" fill="#C4C4C4"/>
<path d="M40.0494 11.4005C39.837 11.4086 39.626 11.3647 39.4362 11.2731C39.2463 11.1815 39.0838 11.0451 38.9638 10.8767C38.6798 10.4348 38.544 9.91983 38.5748 9.40147C38.5432 8.88493 38.6791 8.3717 38.9638 7.93228C39.0879 7.76929 39.2503 7.6367 39.4379 7.54529C39.6254 7.45389 39.8328 7.40625 40.0431 7.40625C40.2535 7.40625 40.4609 7.45389 40.6484 7.54529C40.836 7.6367 40.9984 7.76929 41.1224 7.93228C41.4073 8.37387 41.5431 8.88905 41.5115 9.40749C41.5431 9.92593 41.4073 10.4411 41.1224 10.8827C41.0029 11.0482 40.8421 11.1823 40.6547 11.2728C40.4672 11.3632 40.2591 11.4072 40.0494 11.4005ZM39.4219 10.4973C39.477 10.6126 39.5654 10.7103 39.6766 10.7788C39.7879 10.8473 39.9172 10.8837 40.0494 10.8837C40.1816 10.8837 40.311 10.8473 40.4222 10.7788C40.5334 10.7103 40.6219 10.6126 40.6769 10.4973C40.8375 10.1514 40.9086 9.77339 40.884 9.39545C40.9056 9.01839 40.8302 8.64203 40.6644 8.29958C40.6093 8.18428 40.5209 8.08657 40.4097 8.01808C40.2984 7.94958 40.169 7.91316 40.0369 7.91316C39.9047 7.91316 39.7753 7.94958 39.6641 8.01808C39.5528 8.08657 39.4644 8.18428 39.4094 8.29958C39.2404 8.64119 39.1627 9.01782 39.1835 9.39545C39.1655 9.77546 39.2452 10.1539 39.4156 10.4973H39.4219Z" fill="#C4C4C4"/>
<path d="M43.4701 9.59524V9.10754H43.9533C44.1427 9.11572 44.3285 9.05558 44.4741 8.93895C44.5409 8.88541 44.5943 8.81806 44.6301 8.74194C44.666 8.66583 44.6834 8.58292 44.6812 8.49942C44.6844 8.4187 44.6686 8.33832 44.6349 8.2643C44.6013 8.19027 44.5506 8.12451 44.4867 8.07193C44.3393 7.95896 44.1542 7.90119 43.9658 7.90936C43.7755 7.90082 43.5883 7.95855 43.4387 8.07193C43.3703 8.12657 43.3148 8.19455 43.2758 8.27137C43.2369 8.34819 43.2154 8.43209 43.2128 8.51748H42.623C42.6253 8.36201 42.6617 8.20876 42.7298 8.06768C42.7979 7.9266 42.8962 7.80085 43.0183 7.69862C43.2926 7.50947 43.6218 7.40771 43.9596 7.40771C44.2973 7.40771 44.6265 7.50947 44.9008 7.69862C45.0184 7.78209 45.1138 7.89104 45.1793 8.0166C45.2447 8.14216 45.2783 8.28077 45.2773 8.42114C45.2894 8.63768 45.2204 8.85122 45.0828 9.02324C44.9531 9.18212 44.7683 9.29108 44.562 9.33031V9.37246C44.802 9.39282 45.0256 9.49796 45.1895 9.66749C45.3428 9.83354 45.4276 10.0477 45.4279 10.2696C45.4356 10.4847 45.3695 10.6962 45.2397 10.8717C45.1056 11.0498 44.9233 11.1893 44.7126 11.2751C44.4801 11.3765 44.2274 11.4278 43.9721 11.4256C43.6062 11.4407 43.2464 11.332 42.9556 11.1185C42.8273 11.0199 42.7232 10.8954 42.6506 10.7539C42.5779 10.6124 42.5385 10.4574 42.5352 10.2997H43.125C43.133 10.3869 43.1607 10.4715 43.2062 10.5474C43.2517 10.6233 43.3139 10.6888 43.3885 10.7392C43.5615 10.8535 43.7686 10.9105 43.9784 10.9018C44.193 10.9105 44.404 10.8466 44.5745 10.7212C44.6385 10.671 44.6916 10.6093 44.7306 10.5395C44.7697 10.4696 44.794 10.3931 44.8022 10.3142C44.8103 10.2353 44.8022 10.1557 44.7782 10.0798C44.7542 10.004 44.7148 9.93342 44.6624 9.8722L44.5745 9.78791C44.3928 9.66156 44.171 9.59983 43.947 9.6133L43.4701 9.59524Z" fill="#C4C4C4"/>
</svg>
