<svg width="44" height="44" viewBox="0 0 44 44" fill="none" xmlns="http://www.w3.org/2000/svg">
<path d="M32 22L20 22" stroke="#2B2B2B" stroke-width="2"/>
<path d="M12 14.7275L22 14.7275" stroke="#2B2B2B" stroke-width="2"/>
<path d="M12 29.2725L24 29.2725" stroke="#2B2B2B" stroke-width="2"/>
<path d="M15 22L12 22" stroke="#2B2B2B" stroke-width="2"/>
<path d="M27.4545 14.7275L32 14.7275" stroke="#2B2B2B" stroke-width="2"/>
<path d="M29 29.2725L32 29.2725" stroke="#2B2B2B" stroke-width="2"/>
<path d="M17.7259 24.727C16.2196 24.727 14.9986 23.506 14.9986 21.9997C14.9986 20.4935 16.2196 19.2725 17.7259 19.2725C19.2321 19.2725 20.4531 20.4935 20.4531 21.9997C20.4531 23.506 19.2321 24.727 17.7259 24.727Z" stroke="#2C75FF" stroke-width="2"/>
<path d="M24.7273 12C26.2335 12 27.4545 13.2211 27.4545 14.7273C27.4545 16.2335 26.2335 17.4546 24.7273 17.4546C23.221 17.4546 22 16.2335 22 14.7273C22 13.2211 23.221 12 24.7273 12Z" stroke="#2B2B2B" stroke-width="2"/>
<path d="M26.7273 26.5455C28.2335 26.5455 29.4545 27.7665 29.4545 29.2727C29.4545 30.779 28.2335 32 26.7273 32C25.221 32 24 30.779 24 29.2727C24 27.7665 25.221 26.5455 26.7273 26.5455Z" stroke="#2B2B2B" stroke-width="2"/>
<rect x="1" y="1" width="42" height="42" rx="21" stroke="#C4C4C4"/>
</svg>
