<svg width="52" height="52" viewBox="0 0 52 52" fill="none" xmlns="http://www.w3.org/2000/svg">
<rect x="51" y="51" width="50" height="50" transform="rotate(180 51 51)" stroke="#CECECE"/>
<path d="M14.1255 16.3794L13.4184 15.6723L13.4184 15.6723L14.1255 16.3794ZM25.6168 16.3794L26.3239 15.6723V15.6723L25.6168 16.3794ZM14.1255 27.8707L13.4184 28.5778H13.4184L14.1255 27.8707ZM25.9998 39.745L25.2927 40.4521L26.0005 41.1599L26.7076 40.4514L25.9998 39.745ZM26.0003 39.7445L26.7074 39.0374L25.9996 38.3296L25.2925 39.0381L26.0003 39.7445ZM26.0012 39.7454L25.2941 40.4525L26.0012 41.1596L26.7083 40.4525L26.0012 39.7454ZM37.8755 27.8711L38.5826 28.5782L37.8755 27.8711ZM37.8755 16.3799L37.1684 17.087L37.8755 16.3799ZM26.3843 16.3799L27.0914 17.087L27.0914 17.087L26.3843 16.3799ZM26.0007 16.7634L25.2936 17.4705L26.0007 18.1776L26.7078 17.4705L26.0007 16.7634ZM14.8326 17.0865C17.6153 14.3038 22.127 14.3038 24.9097 17.0865L26.3239 15.6723C22.7601 12.1086 16.9822 12.1086 13.4184 15.6723L14.8326 17.0865ZM14.8326 27.1636C12.0499 24.3809 12.0499 19.8692 14.8326 17.0865L13.4184 15.6723C9.85467 19.2361 9.85467 25.0141 13.4184 28.5778L14.8326 27.1636ZM26.7069 39.0379L14.8326 27.1636L13.4184 28.5778L25.2927 40.4521L26.7069 39.0379ZM25.2925 39.0381L25.292 39.0386L26.7076 40.4514L26.7081 40.4509L25.2925 39.0381ZM26.7083 39.0383L26.7074 39.0374L25.2932 40.4516L25.2941 40.4525L26.7083 39.0383ZM37.1684 27.164L25.2941 39.0383L26.7083 40.4525L38.5826 28.5782L37.1684 27.164ZM37.1684 17.087C39.9511 19.8697 39.9511 24.3813 37.1684 27.164L38.5826 28.5782C42.1464 25.0145 42.1464 19.2365 38.5826 15.6728L37.1684 17.087ZM27.0914 17.087C29.8741 14.3043 34.3857 14.3043 37.1684 17.087L38.5826 15.6728C35.0189 12.109 29.2409 12.109 25.6772 15.6728L27.0914 17.087ZM26.7078 17.4705L27.0914 17.087L25.6772 15.6728L25.2936 16.0563L26.7078 17.4705ZM24.9097 17.0865L25.2936 17.4705L26.7078 16.0563L26.3239 15.6723L24.9097 17.0865Z" fill="#2C75FF"/>
<path d="M21 18C18.2386 18 16 20.2386 16 23" stroke="#2C75FF" stroke-width="2"/>
</svg>
