<svg width="33" height="32" viewBox="0 0 33 32" fill="none" xmlns="http://www.w3.org/2000/svg">
<path d="M7.29929 8.59031L6.59218 7.8832L7.29929 8.59031ZM15.9741 8.5903L15.267 9.29741L15.9741 8.5903ZM7.29929 17.2651L8.0064 16.558L7.29929 17.2651ZM11.9241 21.8899L12.9027 22.0959L13.0143 21.5658L12.6312 21.1828L11.9241 21.8899ZM11.9237 21.8917L10.9452 21.6856L10.8336 22.2157L11.2166 22.5988L11.9237 21.8917ZM16.2611 26.229L15.554 26.9362L16.2611 27.6433L16.9682 26.9362L16.2611 26.229ZM16.2622 26.228L16.969 25.5206L16.2619 24.8141L15.5551 25.5209L16.2622 26.228ZM16.2632 26.229L15.5564 26.9365L16.2636 27.6429L16.9703 26.9361L16.2632 26.229ZM20.6006 21.8916L21.3077 22.5987L21.6907 22.2158L21.5792 21.6858L20.6006 21.8916ZM20.6003 21.8899L19.8932 21.1828L19.5102 21.5658L19.6217 22.0957L20.6003 21.8899ZM25.2251 17.2651L24.518 16.558L25.2251 17.2651ZM25.2251 8.59033L25.9322 7.88323V7.88323L25.2251 8.59033ZM16.5503 8.59033L15.8432 7.88323L16.5503 8.59033ZM16.2622 8.87843L15.5551 9.58554L16.2622 10.2926L16.9693 9.58554L16.2622 8.87843ZM8.0064 9.29741C10.0113 7.29246 13.262 7.29246 15.267 9.29741L16.6812 7.8832C13.8952 5.0972 9.37818 5.0972 6.59218 7.8832L8.0064 9.29741ZM8.0064 16.558C6.00145 14.553 6.00145 11.3024 8.0064 9.29741L6.59218 7.8832C3.80619 10.6692 3.80618 15.1862 6.59218 17.9722L8.0064 16.558ZM12.6312 21.1828L8.0064 16.558L6.59218 17.9722L11.217 22.597L12.6312 21.1828ZM12.9023 22.0977L12.9027 22.0959L10.9456 21.6839L10.9452 21.6856L12.9023 22.0977ZM16.9682 25.5219L12.6309 21.1846L11.2166 22.5988L15.554 26.9362L16.9682 25.5219ZM15.5551 25.5209L15.554 25.5219L16.9682 26.9362L16.9693 26.9351L15.5551 25.5209ZM16.97 25.5216L16.969 25.5206L15.5554 26.9354L15.5564 26.9365L16.97 25.5216ZM19.8935 21.1845L15.5561 25.5219L16.9703 26.9361L21.3077 22.5987L19.8935 21.1845ZM19.6217 22.0957L19.622 22.0974L21.5792 21.6858L21.5788 21.6841L19.6217 22.0957ZM24.518 16.558L19.8932 21.1828L21.3074 22.597L25.9322 17.9722L24.518 16.558ZM24.518 9.29744C26.5229 11.3024 26.5229 14.5531 24.518 16.558L25.9322 17.9722C28.7182 15.1862 28.7182 10.6692 25.9322 7.88323L24.518 9.29744ZM17.2574 9.29744C19.2624 7.29249 22.513 7.29249 24.518 9.29744L25.9322 7.88323C23.1462 5.09723 18.6292 5.09723 15.8432 7.88323L17.2574 9.29744ZM16.9693 9.58554L17.2574 9.29744L15.8432 7.88323L15.5551 8.17133L16.9693 9.58554ZM15.267 9.29741L15.5551 9.58554L16.9693 8.17133L16.6812 7.8832L15.267 9.29741Z" fill="#2B2B2B"/>
<path d="M12.4894 9.81387C10.4047 9.81387 8.71484 11.5038 8.71484 13.5884" stroke="#2C75FF" stroke-width="2"/>
</svg>
