<svg width="71" height="28" viewBox="0 0 71 28" fill="none" xmlns="http://www.w3.org/2000/svg">
<path d="M21.7906 23.8344C21.7906 24.6448 21.5973 25.3119 21.2108 25.8418C20.8243 26.3654 20.2819 26.7519 19.5837 27.0013C18.8917 27.2507 18.0813 27.3691 17.1649 27.3691H12.5703V15.0068H16.9155C17.7259 15.0068 18.4491 15.1191 19.0725 15.3497C19.6959 15.5804 20.1884 15.9233 20.55 16.3846C20.9116 16.8397 21.0924 17.4257 21.0924 18.1301C21.0924 18.7411 20.9303 19.2648 20.5999 19.6949C20.2695 20.1251 19.8206 20.4555 19.2595 20.6924C19.9515 20.8919 20.5812 21.2721 21.0799 21.7958C21.5475 22.307 21.7906 22.9865 21.7906 23.8344ZM16.6848 17.0205H15.1138V19.9505H16.6848C17.2397 19.9505 17.6761 19.8196 17.994 19.5515C18.3119 19.2897 18.474 18.9219 18.474 18.4668C18.474 18.0117 18.3119 17.6563 17.994 17.4007C17.6761 17.1451 17.2397 17.0142 16.6848 17.0205ZM15.1138 25.3555H16.9467C17.5826 25.3555 18.1125 25.2059 18.5364 24.9129C18.9603 24.6199 19.1723 24.1523 19.1723 23.5164C19.1723 22.918 18.9603 22.4753 18.5364 22.201C18.1125 21.9267 17.5826 21.7833 16.9467 21.7833H15.1138V25.3555Z" fill="#2B2B2B"/>
<path d="M31.3144 27.3696L30.024 24.5767H25.7848L24.513 27.3696H21.6328L27.337 15.4499C27.4867 15.1382 27.8669 15.001 28.1787 15.1569C28.3096 15.2192 28.4156 15.3252 28.4717 15.4499L34.1884 27.3696H31.3144ZM27.9044 19.0345L26.3832 22.5693H29.4192L27.9044 19.0345Z" fill="#2B2B2B"/>
<path d="M35.0352 15.0073H37.5787V19.6331H43.339V15.0073H45.8826V27.3696H43.339V21.9459H37.5787V27.3696H35.0352V15.0073Z" fill="#2B2B2B"/>
<path d="M47.0703 15.0073H49.6138V19.6331H55.3742V15.0073H57.9177V27.3696H55.3742V21.9459H49.6138V27.3696H47.0703V15.0073Z" fill="#2B2B2B"/>
<path d="M68.1269 27.3696L66.8365 24.5767H62.5973L61.3255 27.3696H58.4453L64.1495 15.4499C64.2992 15.1382 64.6794 15.001 64.9912 15.1569C65.1221 15.2192 65.228 15.3252 65.2842 15.4499L71.0009 27.3696H68.1269ZM64.7169 19.0345L63.1957 22.5693H66.2318L64.7169 19.0345Z" fill="#2B2B2B"/>
<path d="M8.43479 2.38938H2.58093V12.4575H0V0.0952148H11.0157V12.4575H8.43479V2.38938Z" fill="#2C75FF"/>
<path d="M27.7805 0.0952572V7.56375L35.6979 0.107726C35.86 -0.041893 36.1156 -0.0356596 36.2652 0.126428C36.3338 0.201237 36.3712 0.300984 36.3712 0.406964V12.4513H33.9648V4.98905L26.0288 12.4451C25.8667 12.5947 25.6111 12.5885 25.4614 12.4264C25.3929 12.3516 25.3555 12.2518 25.3555 12.1458V0.0952572H27.7805Z" fill="#2C75FF"/>
<path d="M2.42508 15.0074V22.4759L10.3424 15.0198C10.5045 14.8702 10.7601 14.8764 10.9097 15.0385C10.9783 15.1133 11.0157 15.2131 11.0157 15.3191V27.3697H8.60934V19.9012L0.673289 27.3572C0.511202 27.5068 0.255604 27.5006 0.105985 27.3385C0.0374094 27.2637 0 27.1639 0 27.058V15.0074H2.42508Z" fill="#2B2B2B"/>
<path d="M37.5391 2.38938V0.0952148H46.7406V2.38938H43.3991V12.4575H40.8556V2.38938H37.5391Z" fill="#2C75FF"/>
<path d="M47.7094 0.0952148H50.3215V5.11369L54.7165 0.0952148H57.7338L52.6094 5.88673L57.977 12.4575H54.9035L50.3152 6.85925V12.4575H47.7031L47.7094 0.0952148Z" fill="#2C75FF"/>
<path d="M68.1269 12.4571L66.8365 9.66418H62.5973L61.3255 12.4571H58.4453L64.1495 0.543646C64.2992 0.231939 64.6794 0.0947873 64.9912 0.250641C65.1221 0.312982 65.228 0.418963 65.2842 0.543646L71.0009 12.4633L68.1269 12.4571ZM64.7169 4.12204L63.1957 7.65679H66.2318L64.7169 4.12204Z" fill="#2C75FF"/>
<path d="M18.6279 0.537786C18.4783 0.22608 18.098 0.0889279 17.7863 0.244781C17.6554 0.307123 17.5494 0.413104 17.4933 0.537786L11.7891 12.4574H14.6692L18.0606 4.61491L21.4707 12.4574H24.3508L18.6279 0.537786Z" fill="#2C75FF"/>
</svg>
