<svg width="95" height="37" viewBox="0 0 95 37" fill="none" xmlns="http://www.w3.org/2000/svg">
<path d="M29.1573 31.8911C29.1573 32.9755 28.8987 33.868 28.3816 34.577C27.8644 35.2777 27.1387 35.7949 26.2044 36.1286C25.2785 36.4622 24.1942 36.6207 22.968 36.6207H16.8203V20.0796H22.6343C23.7187 20.0796 24.6863 20.2297 25.5204 20.5384C26.3546 20.847 27.0136 21.3058 27.4974 21.923C27.9812 22.532 28.2231 23.3161 28.2231 24.2587C28.2231 25.0761 28.0062 25.7768 27.5641 26.3524C27.122 26.9279 26.5214 27.37 25.7707 27.687C26.6966 27.9539 27.5391 28.4628 28.2064 29.1634C28.832 29.8474 29.1573 30.7566 29.1573 31.8911ZM22.3257 22.7739H20.2236V26.6944H22.3257C23.0681 26.6944 23.652 26.5192 24.0774 26.1605C24.5028 25.8102 24.7197 25.318 24.7197 24.7091C24.7197 24.1002 24.5028 23.6247 24.0774 23.2827C23.652 22.9407 23.0681 22.7655 22.3257 22.7739ZM20.2236 33.9264H22.676C23.5268 33.9264 24.2359 33.7262 24.8031 33.3342C25.3703 32.9421 25.6539 32.3165 25.6539 31.4657C25.6539 30.6649 25.3703 30.0727 24.8031 29.7056C24.2359 29.3386 23.5268 29.1468 22.676 29.1468H20.2236V33.9264Z" fill="white"/>
<path d="M41.8996 36.6212L40.1729 32.8842H34.5007L32.7991 36.6212H28.9453L36.5777 20.6723C36.7779 20.2553 37.2868 20.0718 37.7038 20.2803C37.879 20.3637 38.0208 20.5055 38.0959 20.6723L45.745 36.6212H41.8996ZM37.3368 25.4687L35.3015 30.1983H39.3638L37.3368 25.4687Z" fill="white"/>
<path d="M46.8789 20.0796H50.2822V26.269H57.9897V20.0796H61.393V36.6207H57.9897V29.3636H50.2822V36.6207H46.8789V20.0796Z" fill="white"/>
<path d="M62.9844 20.0796H66.3877V26.269H74.0952V20.0796H77.4985V36.6207H74.0952V29.3636H66.3877V36.6207H62.9844V20.0796Z" fill="white"/>
<path d="M91.1535 36.6212L89.4268 32.8842H83.7546L82.053 36.6212H78.1992L85.8316 20.6723C86.0318 20.2553 86.5407 20.0718 86.9577 20.2803C87.1329 20.3637 87.2747 20.5055 87.3498 20.6723L94.9989 36.6212H91.1535ZM86.5907 25.4687L84.5554 30.1983H88.6177L86.5907 25.4687Z" fill="white"/>
<path d="M11.286 3.19758H3.45336V16.669H0V0.12793H14.7394V16.669H11.286V3.19758Z" fill="#2C75FF"/>
<path d="M37.1706 0.127457V10.1205L47.7643 0.144141C47.9811 -0.0560541 48.3231 -0.0477137 48.5233 0.169164C48.6151 0.269262 48.6651 0.402725 48.6651 0.54453V16.6602H45.4453V6.6755L34.8267 16.6519C34.6098 16.8521 34.2678 16.8437 34.0676 16.6269C33.9758 16.5268 33.9258 16.3933 33.9258 16.2515V0.127457H37.1706Z" fill="#2C75FF"/>
<path d="M3.24483 20.0801V30.0732L13.8385 20.0968C14.0554 19.8966 14.3974 19.9049 14.5975 20.1218C14.6893 20.2219 14.7394 20.3554 14.7394 20.4972V36.6212H11.5196V26.6281L0.900881 36.6045C0.684003 36.8047 0.342006 36.7964 0.141811 36.5795C0.0500548 36.4794 0 36.3459 0 36.2041V20.0801H3.24483Z" fill="white"/>
<path d="M50.2266 3.19758V0.12793H62.5385V3.19758H58.0675V16.669H54.6642V3.19758H50.2266Z" fill="#2C75FF"/>
<path d="M63.8325 0.12793H67.3276V6.8428L73.2084 0.12793H77.2456L70.3889 7.87714L77.5709 16.669H73.4586L67.3193 9.17841V16.669H63.8242L63.8325 0.12793Z" fill="#2C75FF"/>
<path d="M91.1535 16.668L89.4268 12.9311H83.7546L82.053 16.668H78.1992L85.8316 0.727517C86.0318 0.310444 86.5407 0.126931 86.9577 0.335467C87.1329 0.418882 87.2747 0.560688 87.3498 0.727517L94.9989 16.6764L91.1535 16.668ZM86.5907 5.51551L84.5554 10.2451H88.6177L86.5907 5.51551Z" fill="#2C75FF"/>
<path d="M24.924 0.719704C24.7238 0.302632 24.215 0.119119 23.7979 0.327655C23.6227 0.411069 23.4809 0.552875 23.4059 0.719704L15.7734 16.6686H19.6272L24.1649 6.17501L28.7277 16.6686H32.5815L24.924 0.719704Z" fill="#2C75FF"/>
</svg>
