<svg width="53" height="53" viewBox="0 0 53 53" fill="none" xmlns="http://www.w3.org/2000/svg">
<circle cx="26.1602" cy="26.5" r="25.5" stroke="#CECECE"/>
<path d="M21.1562 22.0312L29.3195 26.7443L20.5218 41.9824L18.1264 36.7052L12.3585 37.2693L21.1562 22.0312Z" fill="white" stroke="#CECECE" stroke-width="1.5"/>
<path d="M30.5781 22.0312L22.4149 26.7443L31.2126 41.9824L33.608 36.7052L39.3758 37.2693L30.5781 22.0312Z" fill="white" stroke="#CECECE" stroke-width="1.5"/>
<path d="M25.8708 10.1074L29.2462 12.8792L33.606 12.6207L34.7075 16.8471L38.3867 19.2007L36.7936 23.2673L38.3867 27.334L34.7075 29.6875L33.606 33.9139L29.2462 33.6555L25.8708 36.4272L22.4955 33.6555L18.1356 33.9139L17.0342 29.6875L13.355 27.334L14.9481 23.2673L13.355 19.2007L17.0342 16.8471L18.1356 12.6207L22.4955 12.8792L25.8708 10.1074Z" fill="white" stroke="#CECECE" stroke-width="2"/>
<circle cx="25.8694" cy="23.2673" r="7.61889" transform="rotate(180 25.8694 23.2673)" fill="white" stroke="#CECECE" stroke-width="1.5"/>
<path d="M21.6134 23.5773C21.6134 25.9266 23.5179 27.8311 25.8672 27.8311" stroke="#CECECE" stroke-width="1.5"/>
</svg>
