<svg width="236" height="25" viewBox="0 0 236 25" fill="none" xmlns="http://www.w3.org/2000/svg">
<path d="M26.8893 1.89209L22.5547 22.1648H27.7963L32.1309 1.89209H26.8893Z" fill="#1A1F71"/>
<path d="M19.1257 1.89263L13.6707 15.6834L11.4701 3.95991C11.3806 3.38154 11.0862 2.8546 10.6406 2.47513C10.195 2.09566 9.62795 1.88894 9.0427 1.89263H0.120036L0 2.47947C1.78948 2.83019 3.52798 3.40371 5.17488 4.18665C5.51797 4.35259 5.81241 4.6043 6.02971 4.91739C6.24701 5.23049 6.37981 5.59438 6.41525 5.97385L10.6032 22.1653H16.1381L24.634 1.89263H19.1257Z" fill="#1A1F71"/>
<path d="M60.6558 1.89213H56.1745C55.6963 1.88943 55.2284 2.03037 54.8312 2.29671C54.4341 2.56305 54.1261 2.9425 53.9471 3.38591L46.0781 22.1648H51.5864L52.6801 19.1373H59.3488L60.0156 22.1648H64.8704L60.6558 1.89213ZM54.1872 14.976L56.948 7.36043L58.5352 14.976H54.1872Z" fill="#1A1F71"/>
<path d="M39.014 7.50799C39.014 6.78777 39.7209 6.01421 41.2414 5.81415C43.0166 5.64336 44.8049 5.95678 46.4163 6.72108L47.3232 2.42647C45.7543 1.83381 44.0921 1.52665 42.4151 1.51953C37.2268 1.51953 33.5858 4.28036 33.5591 8.18819C33.5591 11.1091 36.2265 12.7362 38.1471 13.7098C40.0677 14.6835 40.8146 15.337 40.8146 16.2306C40.8146 17.5643 39.1874 18.1912 37.6803 18.2178C35.8175 18.2343 33.9813 17.7753 32.3454 16.8841L31.3984 21.3254C33.2559 22.0493 35.2334 22.4158 37.2268 22.4058C42.7352 22.4058 46.3362 19.7383 46.3496 15.4704C46.3762 10.1888 38.9607 9.89536 39.014 7.50799Z" fill="#1A1F71"/>
<path fill-rule="evenodd" clip-rule="evenodd" d="M184.645 3.03906V3.04775C184.636 3.04775 181.899 3.03906 181.169 5.65404C180.5 8.05183 178.615 14.6718 178.563 14.8543H178.041C178.041 14.8543 176.113 8.08658 175.435 5.64536C174.705 3.03038 171.959 3.03906 171.959 3.03906H165.703V22.9338H171.959V11.1186H172.22H172.481L176.13 22.9338H180.474L184.124 11.1273H184.645V22.9338H190.901V3.03906H184.645Z" fill="#0F754E"/>
<path fill-rule="evenodd" clip-rule="evenodd" d="M207.496 3.03857C207.496 3.03857 205.663 3.20364 204.803 5.12361L200.371 14.8538H199.85V3.03857H193.594V22.9333H199.502C199.502 22.9333 201.423 22.7595 202.283 20.8482L206.627 11.1181H207.149V22.9333H213.405V3.03857H207.496Z" fill="#0F754E"/>
<path fill-rule="evenodd" clip-rule="evenodd" d="M216.188 12.0737V22.9333H222.444V16.5913H229.221C232.175 16.5913 234.678 14.7061 235.607 12.0737H216.188Z" fill="#0F754E"/>
<path fill-rule="evenodd" clip-rule="evenodd" d="M229.224 3.03857H215.312C216.008 6.82639 218.849 9.86706 222.524 10.8575C223.358 11.0833 224.236 11.205 225.14 11.205H235.862C235.957 10.7532 236.001 10.2928 236.001 9.81494C236.001 6.07056 232.968 3.03857 229.224 3.03857Z" fill="url(#paint0_linear_77_1455)"/>
<path d="M134.126 19.9726V19.5754H134.288V19.4932H133.879V19.5754H134.041V19.9726H134.126Z" fill="#2B2B2B"/>
<path d="M134.919 19.9716V19.4922H134.795L134.651 19.8209L134.507 19.4922H134.383V19.9716H134.469V19.6086L134.606 19.9202H134.696L134.833 19.6086V19.9716H134.919Z" fill="#2B2B2B"/>
<circle cx="122.5" cy="12.5" r="12.5" fill="#F79E1B"/>
<circle cx="107.5" cy="12.5" r="12.5" fill="#EB001B"/>
<path fill-rule="evenodd" clip-rule="evenodd" d="M115 22.5009C118.036 20.2204 120 16.5895 120 12.5C120 8.41046 118.036 4.7796 115 2.49908C111.964 4.7796 110 8.41046 110 12.5C110 16.5895 111.964 20.2204 115 22.5009Z" fill="#FF5F00"/>
<defs>
<linearGradient id="paint0_linear_77_1455" x1="215.5" y1="8" x2="236" y2="8" gradientUnits="userSpaceOnUse">
<stop stop-color="#03ACFE"/>
<stop offset="1" stop-color="#1E5ED8"/>
</linearGradient>
</defs>
</svg>
