<svg width="33" height="33" viewBox="0 0 33 33" fill="none" xmlns="http://www.w3.org/2000/svg">
<path d="M21.1173 16.1438V16.1438C21.4708 13.669 19.3495 11.5475 16.8747 11.9012V11.9012" stroke="#2C75FF" stroke-width="2"/>
<path d="M26.0668 15.435V15.435C26.4383 10.6033 22.4132 6.5779 17.5815 6.94975V6.94975" stroke="#2C75FF" stroke-width="2"/>
<path d="M9.44969 6.59795L8.56404 7.48361C7.13614 8.91151 6.54739 10.976 7.00717 12.9424C8.52399 19.4293 13.5895 24.495 20.0765 26.0114C22.0426 26.471 24.1065 25.8822 25.5342 24.4545L26.4203 23.5685C26.8108 23.178 26.8108 22.5448 26.4203 22.1543L24.2989 20.033C23.1274 18.8614 21.2279 18.8614 20.0563 20.033L18.9956 21.0936L16.832 20.5529C14.6822 20.0157 13.0036 18.3373 12.466 16.1876L11.9246 14.0226L12.9852 12.9619C14.1568 11.7903 14.1568 9.89085 12.9852 8.71927L10.8639 6.59795C10.4734 6.20743 9.84022 6.20743 9.44969 6.59795Z" stroke="#2B2B2B" stroke-width="2"/>
</svg>
