<svg width="66" height="28" viewBox="0 0 66 28" fill="none" xmlns="http://www.w3.org/2000/svg">
<path d="M22.0601 4.47151C19.6714 2.04111 16.3695 0.72168 12.9972 0.72168C5.83125 0.72168 0.0702997 6.48529 0.140499 13.4988C0.140499 15.721 0.772793 17.8737 1.82668 19.818L0 26.415L6.81474 24.6789C8.71163 25.7206 10.8192 26.2067 12.927 26.2067C20.0227 26.2067 25.7837 20.443 25.7837 13.4296C25.7837 10.0269 24.4488 6.83252 22.0602 4.47151H22.0601ZM12.9972 24.0541C11.1003 24.0541 9.20342 23.5681 7.58754 22.5959L7.16604 22.3875L3.09127 23.4291L4.14507 19.471L3.86407 19.0543C0.772794 14.124 2.24818 7.59636 7.30654 4.54089C12.3649 1.48552 18.8986 2.94382 21.9899 7.94359C25.0811 12.9434 23.6057 19.4014 18.5474 22.4569C16.9315 23.4985 14.9644 24.054 12.9972 24.054V24.0541ZM19.1796 16.3462L18.4068 15.9989C18.4068 15.9989 17.2829 15.5128 16.5803 15.1656C16.51 15.1656 16.4398 15.0961 16.3695 15.0961C16.1587 15.0961 16.0182 15.1656 15.8777 15.2351C15.8777 15.2351 15.8075 15.3045 14.8239 16.4155C14.7536 16.5544 14.6131 16.6239 14.4726 16.6239H14.4023C14.3321 16.6239 14.1916 16.5544 14.1213 16.485L13.77 16.3462C12.9972 15.9989 12.2947 15.5822 11.7326 15.0267C11.5921 14.8879 11.3813 14.749 11.2408 14.6101C10.749 14.124 10.2572 13.5684 9.90602 12.9435L9.83572 12.8046C9.76552 12.7351 9.76552 12.6657 9.69522 12.5268C9.69522 12.388 9.69522 12.2491 9.76552 12.1796C9.76552 12.1796 10.0465 11.8324 10.2572 11.6241C10.3978 11.4852 10.468 11.2769 10.6085 11.138C10.749 10.9297 10.8193 10.6519 10.749 10.4436C10.6788 10.0963 9.83572 8.22143 9.62502 7.80482C9.48442 7.59646 9.34402 7.52707 9.13322 7.45759H8.36043C8.21983 7.45759 8.07943 7.52707 7.93883 7.52707L7.86853 7.59646C7.72803 7.66595 7.58754 7.80482 7.44704 7.8742C7.30654 8.01317 7.23624 8.15195 7.09574 8.29092C6.60394 8.91589 6.32295 9.67973 6.32295 10.4436C6.32295 10.9991 6.46345 11.5546 6.67424 12.0407L6.74454 12.2491C7.37684 13.5684 8.21983 14.749 9.34402 15.7906L9.62502 16.0683C9.83572 16.2767 10.0465 16.4155 10.187 16.6238C11.6624 17.8738 13.3485 18.7766 15.2454 19.2626C15.4562 19.332 15.7372 19.332 15.948 19.4015H16.6505C17.0018 19.4015 17.4233 19.2627 17.7044 19.1238C17.915 18.9849 18.0555 18.9849 18.196 18.846L18.3366 18.7071C18.4771 18.5682 18.6176 18.4988 18.7581 18.3599C18.8986 18.2211 19.0391 18.0822 19.1094 17.9432C19.2499 17.6655 19.3201 17.3183 19.3904 16.9711V16.485C19.3904 16.485 19.3201 16.4155 19.1796 16.3462Z" fill="#2B2B2B"/>
<path d="M56.8935 8.62983C56.8935 8.62983 58.1605 8.13575 58.0545 9.33557C58.0197 9.82966 57.703 11.5591 57.4564 13.4295L56.6118 18.9704C56.6118 18.9704 56.5413 19.7821 55.9076 19.9233C55.2743 20.0642 54.324 19.4292 54.1479 19.288C54.007 19.182 51.5082 17.5938 50.6283 16.8176C50.3817 16.6056 50.1 16.1823 50.6635 15.6882L54.3589 12.1589C54.7812 11.7355 55.2035 10.7474 53.4438 11.9472L48.516 15.2998C48.516 15.2998 47.9527 15.653 46.8971 15.3353L44.609 14.6293C44.609 14.6293 43.7643 14.1 45.2074 13.5707C48.7273 11.912 53.0566 10.2181 56.8929 8.62983H56.8935Z" fill="#2B2B2B"/>
<path d="M52.1333 1.64251C58.9991 1.64251 64.5645 7.20796 64.5645 14.0737C64.5645 20.9395 58.9991 26.505 52.1333 26.505C45.2675 26.505 39.7021 20.9395 39.7021 14.0737C39.7021 7.20796 45.2675 1.64251 52.1333 1.64251Z" stroke="#2B2B2B" stroke-width="1.84166"/>
</svg>
