<svg width="190" height="14" viewBox="0 0 190 14" fill="none" xmlns="http://www.w3.org/2000/svg">
<path d="M125 12.3943H123.355V8.55293H125C125.308 8.53735 125.612 8.63169 125.853 8.81785C125.958 8.90314 126.042 9.01042 126.097 9.13148C126.153 9.25253 126.179 9.38416 126.173 9.51628C126.174 9.71673 126.101 9.91099 125.966 10.0642C125.84 10.2185 125.659 10.3217 125.458 10.3532V10.3532C125.708 10.3735 125.942 10.4805 126.116 10.6542C126.284 10.827 126.375 11.0563 126.367 11.2925C126.375 11.4438 126.347 11.5949 126.283 11.7339C126.22 11.8728 126.125 11.9958 126.004 12.0932C125.716 12.3042 125.361 12.4109 125 12.3943V12.3943ZM123.977 9.03461V10.2087H124.711C124.932 10.2227 125.152 10.1678 125.338 10.0521C125.41 10.0018 125.467 9.93539 125.505 9.85873C125.544 9.78208 125.562 9.69755 125.558 9.61262C125.563 9.53552 125.549 9.45843 125.517 9.38739C125.486 9.31636 125.437 9.25331 125.376 9.20319C125.225 9.09901 125.041 9.04798 124.855 9.05869L123.977 9.03461ZM123.977 11.9066H124.874C125.096 11.9189 125.316 11.8618 125.502 11.744C125.576 11.6877 125.634 11.615 125.672 11.5322C125.711 11.4493 125.727 11.3588 125.721 11.2684C125.727 11.1782 125.71 11.088 125.67 11.006C125.631 10.924 125.571 10.8528 125.495 10.7987C125.296 10.6818 125.063 10.6271 124.83 10.6422H123.996L123.977 11.9066Z" fill="#C4C4C4"/>
<path d="M128.969 12.3955H128.342V10.812L126.93 8.54199H127.626L128.649 10.24L129.672 8.54199H130.362L128.969 10.812V12.3955Z" fill="#C4C4C4"/>
<path d="M132.82 8.55478H134.257C134.514 8.54032 134.772 8.57787 135.013 8.665C135.254 8.75213 135.473 8.88689 135.657 9.06055C136.011 9.45055 136.192 9.95887 136.159 10.4755C136.191 10.9939 136.011 11.504 135.657 11.8965C135.474 12.0718 135.255 12.2081 135.014 12.2963C134.773 12.3845 134.515 12.4227 134.257 12.4082H132.82V8.55478ZM133.448 9.06657V11.8784H134.201C134.381 11.8895 134.563 11.8629 134.731 11.8006C134.9 11.7382 135.053 11.6415 135.18 11.5171C135.424 11.2225 135.545 10.8511 135.519 10.4755C135.545 10.0999 135.424 9.72846 135.18 9.43385C135.053 9.30945 134.9 9.21275 134.731 9.1504C134.563 9.08804 134.381 9.0615 134.201 9.07259L133.448 9.06657Z" fill="#C4C4C4"/>
<path d="M139.631 11.8783V12.3961H137.09V8.55469H139.631V9.06648H137.711V10.2105H139.531V10.7042H137.711V11.9084L139.631 11.8783Z" fill="#C4C4C4"/>
<path d="M141.217 12.3962H140.59V8.55469H141.155L143.25 11.4147V8.55469H143.878V12.4022H143.319L141.242 9.56623L141.217 12.3962Z" fill="#C4C4C4"/>
<path d="M145.581 12.3961H144.953V8.55469H145.581V12.3961Z" fill="#C4C4C4"/>
<path d="M146.484 11.323H147.112C147.121 11.416 147.152 11.5057 147.203 11.5852C147.254 11.6646 147.324 11.7315 147.407 11.7806C147.603 11.902 147.833 11.9629 148.066 11.9552C148.288 11.9644 148.508 11.9054 148.693 11.7866C148.768 11.7409 148.83 11.6778 148.873 11.603C148.916 11.5283 148.938 11.4444 148.938 11.3591C148.94 11.2891 148.925 11.2195 148.895 11.1559C148.864 11.0922 148.819 11.0361 148.762 10.9918C148.595 10.8741 148.402 10.7939 148.197 10.757L147.677 10.6366C147.374 10.5836 147.092 10.4525 146.861 10.2573C146.773 10.1708 146.704 10.068 146.659 9.95513C146.614 9.8423 146.593 9.72181 146.597 9.60098C146.594 9.44515 146.629 9.29081 146.7 9.15058C146.771 9.01035 146.876 8.88821 147.005 8.79416C147.308 8.57547 147.681 8.46477 148.059 8.48107C148.432 8.46597 148.798 8.57676 149.095 8.79416C149.217 8.89402 149.314 9.01888 149.379 9.15955C149.444 9.30022 149.476 9.45312 149.471 9.607H148.844C148.838 9.51816 148.812 9.43159 148.768 9.35351C148.723 9.27542 148.662 9.20777 148.587 9.15542C148.41 9.0491 148.205 8.99271 147.997 8.99271C147.788 8.99271 147.584 9.0491 147.407 9.15542C147.336 9.2013 147.279 9.26328 147.239 9.33579C147.2 9.40831 147.18 9.48909 147.181 9.57087C147.18 9.63502 147.194 9.69853 147.224 9.75612C147.253 9.81372 147.297 9.86374 147.35 9.90203C147.519 10.0116 147.709 10.0874 147.909 10.1248L148.348 10.2272C148.675 10.2812 148.983 10.4161 149.239 10.6185C149.332 10.7061 149.404 10.8114 149.452 10.9276C149.499 11.0437 149.521 11.1682 149.515 11.2929C149.522 11.4567 149.488 11.6198 149.416 11.7685C149.344 11.9173 149.236 12.0473 149.101 12.1479C148.773 12.3723 148.374 12.4827 147.972 12.461C147.584 12.4786 147.202 12.3704 146.886 12.1539C146.759 12.0528 146.657 11.9257 146.587 11.782C146.518 11.6382 146.483 11.4814 146.484 11.323V11.323Z" fill="#C4C4C4"/>
<path d="M153.753 12.3948H152.109V8.55342H153.753C154.062 8.53784 154.366 8.63218 154.607 8.81835C154.712 8.90364 154.796 9.01092 154.851 9.13198C154.907 9.25303 154.933 9.38466 154.927 9.51679C154.928 9.71724 154.854 9.9115 154.72 10.0647C154.596 10.2178 154.417 10.3208 154.218 10.3537C154.468 10.374 154.702 10.481 154.877 10.6548C155.045 10.8275 155.135 11.0568 155.128 11.293C155.136 11.4444 155.107 11.5955 155.044 11.7344C154.981 11.8733 154.885 11.9963 154.764 12.0938C154.475 12.3061 154.117 12.4129 153.753 12.3948ZM152.731 9.0351V10.2092H153.465C153.686 10.2233 153.906 10.1684 154.092 10.0527C154.163 10.0017 154.219 9.93495 154.256 9.85834C154.293 9.78172 154.31 9.69753 154.306 9.61313C154.31 9.53603 154.296 9.45893 154.265 9.3879C154.233 9.31686 154.185 9.25381 154.124 9.20369C153.973 9.09951 153.789 9.04848 153.603 9.05919L152.731 9.0351ZM152.731 11.9071H153.628C153.85 11.9194 154.07 11.8624 154.255 11.7446C154.329 11.6883 154.388 11.6156 154.426 11.5327C154.465 11.4499 154.481 11.3593 154.475 11.2689C154.481 11.1788 154.464 11.0886 154.424 11.0066C154.385 10.9245 154.325 10.8533 154.249 10.7993C154.05 10.6819 153.817 10.6272 153.584 10.6427H152.731V11.9071Z" fill="#C4C4C4"/>
<path d="M158.549 11.8783V12.3961H156.008V8.55469H158.549V9.06648H156.623V10.2105H158.443V10.7042H156.623V11.9084L158.549 11.8783Z" fill="#C4C4C4"/>
<path d="M162.022 11.8783V12.3961H159.512V8.55469H160.139V11.8843L162.022 11.8783Z" fill="#C4C4C4"/>
<path d="M164.04 12.3961H163.413V10.8126L162.02 8.55469H162.716L163.739 10.2526L164.762 8.55469H165.452L164.04 10.8126V12.3961Z" fill="#C4C4C4"/>
<path d="M168.327 12.3949L167.963 11.3532H166.413L166.049 12.3949H165.422L166.871 8.54736H167.543L168.992 12.3949H168.327ZM167.191 9.19162L166.564 10.8775H167.775L167.148 9.19162H167.191Z" fill="#C4C4C4"/>
<path d="M170.393 12.3962H169.766V8.55469H170.393V10.361L172.069 8.55469H172.809L171.221 10.2587L172.941 12.4022H172.169L170.807 10.6681L170.393 11.1197V12.3962Z" fill="#C4C4C4"/>
<path d="M175.272 8.48695C175.527 8.4756 175.782 8.51766 176.018 8.61021C176.254 8.70276 176.466 8.84357 176.64 9.02285C176.996 9.42684 177.178 9.94583 177.148 10.474C177.178 11.0022 176.996 11.5211 176.64 11.9251C176.273 12.2669 175.781 12.458 175.269 12.458C174.757 12.458 174.266 12.2669 173.898 11.9251C173.542 11.5211 173.361 11.0022 173.39 10.474C173.361 9.94591 173.543 9.42714 173.898 9.02285C174.073 8.84277 174.286 8.70149 174.523 8.60892C174.761 8.51634 175.016 8.47472 175.272 8.48695V8.48695ZM175.272 9.01081C175.099 9.0042 174.926 9.03671 174.768 9.10573C174.61 9.17475 174.471 9.27835 174.362 9.40822C174.126 9.71559 174.008 10.0924 174.03 10.474C174.008 10.8556 174.125 11.2326 174.362 11.5398C174.475 11.6638 174.615 11.7632 174.771 11.8313C174.928 11.8994 175.097 11.9346 175.269 11.9346C175.441 11.9346 175.611 11.8994 175.767 11.8313C175.923 11.7632 176.063 11.6638 176.176 11.5398C176.413 11.2326 176.531 10.8556 176.508 10.474C176.531 10.0924 176.413 9.71536 176.176 9.40822C176.069 9.27772 175.931 9.17321 175.774 9.10314C175.617 9.03306 175.445 8.99937 175.272 9.00479V9.01081Z" fill="#C4C4C4"/>
<path d="M179.749 12.3949H179.071L177.641 8.54736H178.331L179.423 11.7205L180.515 8.54736H181.18L179.749 12.3949Z" fill="#C4C4C4"/>
<path d="M74.9688 1.53467L74.9688 12.9805" stroke="#C4C4C4" stroke-width="1.14458" stroke-miterlimit="10"/>
<path d="M84.7422 2.00227H86.1792C86.4319 1.98857 86.6849 2.02597 86.9216 2.11206C87.1583 2.19815 87.3736 2.33101 87.5534 2.50203C87.905 2.88861 88.0832 3.39287 88.0491 3.90496C88.0829 4.41961 87.9074 4.92679 87.5597 5.31992C87.3794 5.49203 87.1631 5.62555 86.9252 5.71169C86.6873 5.79782 86.433 5.83463 86.1792 5.81968H84.7485L84.7422 2.00227ZM85.3697 2.54418V5.27176H86.0913C86.2699 5.28109 86.4485 5.25369 86.6152 5.19138C86.7819 5.12908 86.9327 5.0333 87.0577 4.91049C87.3026 4.62772 87.4261 4.26597 87.4028 3.89894C87.4247 3.53573 87.3013 3.1782 87.0577 2.89943C86.9327 2.77661 86.7819 2.68084 86.6152 2.61853C86.4485 2.55622 86.2699 2.52882 86.0913 2.53816L85.3697 2.54418Z" fill="#C4C4C4"/>
<path d="M89.776 5.81327H89.1484V2.00195H89.776V5.81327Z" fill="#C4C4C4"/>
<path d="M94.444 4.30324C94.4552 4.51819 94.4197 4.73302 94.3397 4.9341C94.2598 5.13519 94.1372 5.31814 93.9797 5.47136C93.8112 5.6202 93.6133 5.73522 93.3978 5.80966C93.1823 5.88411 92.9535 5.91649 92.7247 5.90489C92.473 5.91565 92.222 5.87262 91.9898 5.7789C91.7575 5.68518 91.5499 5.54312 91.3819 5.36298C91.0326 4.95149 90.8558 4.42975 90.8862 3.89982C90.8579 3.37099 91.037 2.85117 91.3882 2.44268C91.5543 2.26348 91.7597 2.12192 91.9898 2.0282C92.2199 1.93449 92.4687 1.89096 92.7184 1.90077C93.1268 1.88732 93.5276 2.00844 93.8542 2.24398C94.1574 2.47033 94.3575 2.80046 94.4127 3.16523H93.7852C93.7218 2.95143 93.5846 2.76461 93.3961 2.63536C93.193 2.50888 92.9541 2.44578 92.7122 2.45472C92.547 2.4512 92.3833 2.48475 92.234 2.5527C92.0848 2.62065 91.9541 2.72112 91.8525 2.8461C91.6214 3.14893 91.5062 3.51895 91.5262 3.8938C91.5053 4.27248 91.6205 4.64656 91.8525 4.95354C91.9577 5.08077 92.0925 5.18248 92.2462 5.25047C92.3999 5.31846 92.5681 5.35081 92.7373 5.34492C93.0283 5.3568 93.3132 5.26209 93.5342 5.07998C93.634 4.99492 93.7132 4.88994 93.7663 4.77242C93.8195 4.65489 93.8452 4.52764 93.8417 4.39958V4.31528H92.8188V3.82756H94.4503L94.444 4.30324Z" fill="#C4C4C4"/>
<path d="M96.19 5.81327H95.5625V2.00195H96.19V5.81327Z" fill="#C4C4C4"/>
<path d="M99.0856 5.81327H98.4581V2.53783H97.2031V2.00195H100.341V2.54385H99.0856V5.81327Z" fill="#C4C4C4"/>
<path d="M103.493 5.81403L103.129 4.79042H101.616L101.253 5.78994H100.625L102.062 1.97852H102.689L104.126 5.78994L103.493 5.81403ZM102.351 2.69504L101.78 4.29066H102.978L102.407 2.68902L102.351 2.69504Z" fill="#C4C4C4"/>
<path d="M107.596 5.27138V5.81327H105.117V2.00195H105.745V5.27138H107.596Z" fill="#C4C4C4"/>
<path d="M112.118 5.9051C111.872 5.91638 111.626 5.87404 111.399 5.78125C111.172 5.68845 110.969 5.5476 110.807 5.36922C110.465 4.95464 110.293 4.43408 110.324 3.90608C110.294 3.37821 110.466 2.85805 110.807 2.44294C110.969 2.26456 111.172 2.12371 111.399 2.03091C111.626 1.93812 111.872 1.89578 112.118 1.90706C112.525 1.89647 112.921 2.02689 113.235 2.27435C113.537 2.51172 113.728 2.85356 113.769 3.22569H113.141C113.09 3.00327 112.959 2.80516 112.771 2.66572C112.577 2.5282 112.34 2.45812 112.1 2.46702C111.936 2.46148 111.773 2.49421 111.626 2.56239C111.478 2.63057 111.35 2.73216 111.253 2.8584C111.028 3.16816 110.917 3.54119 110.939 3.91812C110.919 4.29303 111.029 4.66371 111.253 4.97182C111.351 5.09463 111.479 5.19309 111.625 5.25906C111.771 5.32503 111.932 5.3566 112.093 5.35115C112.333 5.35645 112.568 5.28901 112.765 5.15848C112.95 5.0382 113.083 4.85564 113.135 4.64668H113.763C113.74 4.82445 113.682 4.99626 113.59 5.15228C113.499 5.30829 113.376 5.44545 113.229 5.55587C112.912 5.79181 112.52 5.9152 112.118 5.9051V5.9051Z" fill="#C4C4C4"/>
<path d="M116.548 1.90584C116.802 1.89379 117.054 1.93558 117.289 2.02822C117.523 2.12086 117.733 2.26207 117.904 2.44172C118.252 2.85136 118.429 3.37089 118.4 3.89885C118.438 4.43895 118.261 4.97282 117.904 5.39211C117.725 5.56343 117.514 5.69934 117.281 5.79206C117.047 5.88479 116.798 5.93252 116.545 5.93252C116.293 5.93252 116.043 5.88479 115.81 5.79206C115.577 5.69934 115.365 5.56343 115.187 5.39211C114.837 4.98091 114.66 4.45897 114.691 3.92896C114.662 3.40005 114.841 2.88002 115.193 2.47183C115.361 2.28704 115.57 2.14041 115.804 2.04252C116.039 1.94464 116.293 1.89795 116.548 1.90584V1.90584ZM116.548 2.45979C116.377 2.45531 116.208 2.4895 116.053 2.55957C115.898 2.62965 115.763 2.73366 115.657 2.86321C115.422 3.16641 115.304 3.53919 115.325 3.91692C115.304 4.29374 115.419 4.66595 115.651 4.97063C115.857 5.19758 116.148 5.33703 116.461 5.35847C116.774 5.37991 117.083 5.2816 117.32 5.08503L117.439 4.97063C117.671 4.66595 117.787 4.29374 117.766 3.91692C117.796 3.54089 117.69 3.16641 117.465 2.85719C117.357 2.72497 117.217 2.61978 117.057 2.55058C116.898 2.48138 116.723 2.45023 116.548 2.45979V2.45979Z" fill="#C4C4C4"/>
<path d="M120.091 5.81327H119.52V2.00195H120.241L121.496 4.89807H121.54L122.795 2.00195H123.517V5.81327H122.952V3.06166H122.914L121.747 5.70489H121.277L120.109 3.06166H120.072L120.091 5.81327Z" fill="#C4C4C4"/>
<path d="M125.391 5.81327H124.82V2.00195H125.542L126.797 4.89807H126.878L128.133 2.00195H128.855V5.81327H128.284V3.06166H128.246L127.079 5.70489H126.609L125.442 3.06166H125.404L125.391 5.81327Z" fill="#C4C4C4"/>
<path d="M130.752 2.00195V4.44652C130.746 4.56743 130.767 4.68813 130.812 4.80107C130.858 4.914 130.927 5.01673 131.015 5.10282C131.222 5.26472 131.48 5.35318 131.747 5.35318C132.013 5.35318 132.271 5.26472 132.478 5.10282C132.566 5.01673 132.635 4.914 132.681 4.80107C132.726 4.68813 132.747 4.56743 132.741 4.44652V2.00195H133.369V4.50071C133.376 4.69063 133.34 4.8798 133.264 5.05538C133.189 5.23096 133.074 5.38883 132.929 5.51828C132.596 5.77328 132.182 5.91214 131.756 5.91214C131.33 5.91214 130.916 5.77328 130.583 5.51828C130.439 5.38829 130.326 5.23017 130.251 5.05462C130.176 4.87907 130.142 4.69018 130.15 4.50071V2.00195H130.752Z" fill="#C4C4C4"/>
<path d="M135.237 5.81327H134.609V2.00195H135.168L137.207 4.71142H137.251V2.00195H137.879V5.81327H137.32L135.275 3.10982H135.231L135.237 5.81327Z" fill="#C4C4C4"/>
<path d="M139.776 5.81327H139.148V2.00195H139.776V5.81327Z" fill="#C4C4C4"/>
<path d="M142.679 5.90516C142.432 5.91737 142.185 5.87548 141.956 5.78265C141.728 5.68982 141.525 5.54848 141.362 5.36927C141.02 4.95469 140.848 4.43412 140.879 3.90611C140.849 3.37824 141.021 2.85806 141.362 2.44295C141.524 2.26457 141.726 2.12371 141.953 2.03091C142.181 1.93812 142.427 1.89578 142.673 1.90706C143.079 1.89647 143.476 2.02689 143.79 2.27435C144.091 2.51173 144.283 2.85358 144.323 3.22571H143.696C143.645 3.00329 143.514 2.80518 143.326 2.66573C143.132 2.52777 142.895 2.45764 142.654 2.46703C142.491 2.46149 142.328 2.49422 142.18 2.5624C142.033 2.63058 141.905 2.73217 141.807 2.85841C141.582 3.16818 141.472 3.54121 141.493 3.91815C141.473 4.29307 141.584 4.66376 141.807 4.97187C141.906 5.09859 142.035 5.20042 142.184 5.2686C142.332 5.33678 142.496 5.36927 142.661 5.36325C142.9 5.36854 143.135 5.3011 143.332 5.17057C143.515 5.04922 143.645 4.86679 143.696 4.65877H144.323C144.301 4.83653 144.243 5.00835 144.151 5.16437C144.06 5.32039 143.937 5.45754 143.79 5.56797C143.471 5.79961 143.079 5.9187 142.679 5.90516V5.90516Z" fill="#C4C4C4"/>
<path d="M147.879 5.81403L147.515 4.79042H146.003L145.639 5.78994H145.012L146.449 1.97852H147.114L148.551 5.78994L147.879 5.81403ZM146.737 2.69504L146.16 4.29668H147.359L146.781 2.69504H146.737Z" fill="#C4C4C4"/>
<path d="M150.679 5.81327H150.052V2.53783H148.797V2.00195H151.934V2.54385H150.679V5.81327Z" fill="#C4C4C4"/>
<path d="M153.581 5.81327H152.953V2.00195H153.581V5.81327Z" fill="#C4C4C4"/>
<path d="M156.556 1.90584C156.809 1.89379 157.062 1.93558 157.296 2.02822C157.531 2.12086 157.741 2.26207 157.912 2.44172C158.26 2.85136 158.437 3.37088 158.407 3.89884C158.438 4.42877 158.261 4.9505 157.912 5.36199C157.733 5.53331 157.521 5.66921 157.288 5.76194C157.055 5.85467 156.805 5.90239 156.553 5.90239C156.301 5.90239 156.051 5.85467 155.818 5.76194C155.585 5.66921 155.373 5.53331 155.195 5.36199C154.845 4.95079 154.668 4.42885 154.699 3.89884C154.67 3.36994 154.849 2.84991 155.201 2.44172C155.372 2.2624 155.582 2.12142 155.816 2.02881C156.05 1.93619 156.303 1.89421 156.556 1.90584V1.90584ZM156.556 2.45978C156.385 2.45531 156.215 2.48949 156.061 2.55957C155.906 2.62965 155.77 2.73365 155.665 2.8632C155.429 3.1664 155.312 3.53918 155.333 3.91691C155.312 4.29367 155.427 4.66572 155.659 4.97061C155.865 5.19757 156.156 5.33702 156.469 5.35846C156.782 5.3799 157.091 5.28158 157.328 5.08502L157.447 4.97061C157.679 4.66572 157.794 4.29367 157.774 3.91691C157.797 3.53603 157.682 3.15909 157.447 2.85116C157.341 2.72345 157.205 2.62149 157.05 2.5535C156.896 2.48552 156.726 2.45341 156.556 2.45978V2.45978Z" fill="#C4C4C4"/>
<path d="M160.139 5.81327H159.512V2.00195H160.07L162.11 4.71142H162.153V2.00195H162.781V5.81327H162.223L160.139 3.1038V5.81327Z" fill="#C4C4C4"/>
<path d="M168.438 5.81403L168.074 4.79042H166.562L166.198 5.78994H165.57L167.007 1.97852H167.666L169.103 5.78994L168.438 5.81403ZM167.296 2.69504L166.719 4.29668H167.917L167.34 2.69504H167.296Z" fill="#C4C4C4"/>
<path d="M173.272 4.30324C173.283 4.51819 173.248 4.73302 173.168 4.9341C173.088 5.13519 172.965 5.31814 172.808 5.47136C172.639 5.6202 172.441 5.73522 172.226 5.80966C172.01 5.88411 171.782 5.91649 171.553 5.90489C171.301 5.91565 171.05 5.87262 170.818 5.7789C170.586 5.68518 170.378 5.54312 170.21 5.36298C169.861 4.95149 169.684 4.42975 169.714 3.89982C169.685 3.37185 169.862 2.85232 170.21 2.44268C170.376 2.26348 170.582 2.12192 170.812 2.0282C171.042 1.93449 171.291 1.89096 171.54 1.90077C171.949 1.88732 172.349 2.00844 172.676 2.24398C172.979 2.47033 173.179 2.80046 173.235 3.16523H172.607C172.544 2.95143 172.406 2.76461 172.218 2.63536C172.015 2.50888 171.776 2.44578 171.534 2.45472C171.367 2.44929 171.201 2.48192 171.049 2.54995C170.897 2.61797 170.765 2.71946 170.662 2.8461C170.431 3.14893 170.315 3.51895 170.336 3.8938C170.313 4.27451 170.428 4.65095 170.662 4.95956C170.767 5.08679 170.902 5.1885 171.056 5.25649C171.209 5.32448 171.377 5.35683 171.547 5.35094C171.838 5.36343 172.123 5.26865 172.343 5.086C172.446 5.00207 172.527 4.8976 172.583 4.78002C172.638 4.66243 172.665 4.5346 172.664 4.4056V4.32131H171.641V3.82756H173.272V4.30324Z" fill="#C4C4C4"/>
<path d="M176.924 5.27145V5.80734H174.414V2.00195H176.924V2.54386H175.042V3.62165H176.842V4.13345H175.042V5.27748L176.924 5.27145Z" fill="#C4C4C4"/>
<path d="M178.694 5.81327H178.066V2.00195H178.625L180.664 4.71142H180.708V2.00195H181.336V5.81327H180.777L178.738 3.10982H178.694V5.81327Z" fill="#C4C4C4"/>
<path d="M184.244 5.90522C183.997 5.9165 183.751 5.87416 183.524 5.78137C183.297 5.68857 183.094 5.54772 182.932 5.36934C182.59 4.95476 182.418 4.43421 182.449 3.9062C182.419 3.37834 182.591 2.85817 182.932 2.44306C183.094 2.26468 183.297 2.12383 183.524 2.03103C183.751 1.93824 183.997 1.8959 184.244 1.90718C184.65 1.8966 185.046 2.02701 185.36 2.27447C185.662 2.51184 185.854 2.85369 185.894 3.22581H185.266C185.215 3.0034 185.084 2.80528 184.896 2.66584C184.703 2.52789 184.466 2.45776 184.225 2.46715C184.061 2.4616 183.898 2.49433 183.751 2.56251C183.603 2.63069 183.475 2.73228 183.378 2.85852C183.153 3.16828 183.042 3.54131 183.064 3.91824C183.044 4.29315 183.154 4.66384 183.378 4.97194C183.476 5.09866 183.605 5.20049 183.754 5.26867C183.903 5.33685 184.066 5.36933 184.231 5.36332C184.47 5.36861 184.705 5.30117 184.902 5.17064C185.086 5.04929 185.215 4.86687 185.266 4.65884H185.894C185.872 4.83661 185.813 5.00842 185.722 5.16444C185.63 5.32046 185.507 5.45761 185.36 5.56804C185.04 5.801 184.645 5.92016 184.244 5.90522V5.90522Z" fill="#C4C4C4"/>
<path d="M188.604 5.81297H187.977V4.27157L186.59 1.99561H187.274L188.272 3.64538H188.315L189.313 1.99561H189.997L188.598 4.27157L188.604 5.81297Z" fill="#C4C4C4"/>
<path d="M84.5469 11.281H85.1744C85.1869 11.3698 85.2198 11.4547 85.2708 11.5297C85.3218 11.6047 85.3897 11.6679 85.4693 11.7145C85.6586 11.8237 85.876 11.88 86.0968 11.8771C86.3187 11.8885 86.5386 11.8315 86.7243 11.7145C86.7993 11.6702 86.8611 11.6082 86.904 11.5344C86.9468 11.4606 86.9692 11.3775 86.969 11.293C86.9703 11.2242 86.9544 11.1561 86.9228 11.0943C86.8911 11.0326 86.8446 10.9789 86.7871 10.9378C86.61 10.8216 86.4087 10.7436 86.1972 10.709L85.6827 10.5886C85.3888 10.5367 85.1166 10.4051 84.8983 10.2093C84.7251 10.0251 84.6349 9.78268 84.6473 9.53491C84.6416 9.37824 84.6745 9.22248 84.7432 9.08023C84.8118 8.93799 84.9144 8.81323 85.0426 8.71605C85.343 8.49734 85.7138 8.38655 86.0905 8.40296C86.4522 8.39017 86.8073 8.49876 87.0945 8.71003C87.2207 8.80377 87.3238 8.92305 87.3965 9.05938C87.4692 9.19572 87.5096 9.34574 87.515 9.49879H86.8875C86.8753 9.41527 86.845 9.33513 86.7985 9.26356C86.7521 9.19199 86.6904 9.13059 86.6176 9.08333C86.4486 8.97668 86.2487 8.924 86.0466 8.93281C85.8376 8.92316 85.6309 8.97803 85.4568 9.08936C85.3858 9.13484 85.3279 9.19674 85.2884 9.26934C85.2489 9.34195 85.2292 9.42293 85.2309 9.50481C85.2296 9.56896 85.2444 9.63246 85.2738 9.69006C85.3033 9.74765 85.3466 9.79767 85.4003 9.83596C85.5691 9.94402 85.7591 10.0178 85.9588 10.0527L86.398 10.1551C86.7214 10.2098 87.0243 10.3447 87.2765 10.5464C87.374 10.6352 87.4508 10.7428 87.5016 10.8622C87.5525 10.9816 87.5763 11.11 87.5714 11.2389C87.5776 11.405 87.5427 11.5701 87.4696 11.7208C87.3966 11.8715 87.2874 12.0034 87.151 12.1059C86.8283 12.3329 86.4336 12.4456 86.0341 12.425C85.6507 12.4409 85.2728 12.3327 84.961 12.1179C84.8308 12.0173 84.7259 11.8898 84.6542 11.7449C84.5825 11.6 84.5458 11.4414 84.5469 11.281V11.281Z" fill="#C4C4C4"/>
<path d="M89.3072 12.3096H88.6797V8.49805H89.3072V12.3096Z" fill="#C4C4C4"/>
<path d="M91.1875 12.3096H90.5977V8.49805H91.1561L93.1955 11.2077H93.2394V8.49805H93.8669V12.3096H93.3084L91.2252 9.60599H91.1812L91.1875 12.3096Z" fill="#C4C4C4"/>
<path d="M96.7591 12.4021C96.5126 12.4129 96.2668 12.3704 96.0397 12.2776C95.8127 12.1848 95.6103 12.0442 95.4477 11.8662C95.1055 11.4516 94.9336 10.9311 94.9645 10.4031C94.9348 9.87525 95.1065 9.35509 95.4477 8.94C95.61 8.76162 95.8124 8.62077 96.0395 8.52798C96.2666 8.43518 96.5126 8.39285 96.7591 8.40413C97.1654 8.39354 97.562 8.52396 97.8761 8.77141C98.1775 9.00878 98.3691 9.35061 98.4095 9.72273H97.782C97.7305 9.50032 97.5995 9.30221 97.4117 9.16277C97.218 9.02526 96.9812 8.95518 96.7403 8.96408C96.5766 8.95854 96.414 8.99127 96.2664 9.05944C96.1188 9.12762 95.9907 9.22921 95.8932 9.35544C95.6683 9.6652 95.5579 10.0382 95.5794 10.4151C95.5593 10.79 95.6697 11.1607 95.8932 11.4688C95.9917 11.5955 96.1209 11.6974 96.2696 11.7655C96.4182 11.8337 96.5819 11.8662 96.7466 11.8602C96.986 11.8655 97.221 11.798 97.418 11.6675C97.6013 11.5462 97.731 11.3637 97.782 11.1557H98.4095C98.3873 11.3335 98.3287 11.5053 98.2372 11.6613C98.1457 11.8173 98.023 11.9545 97.8761 12.0649C97.5556 12.2979 97.1609 12.417 96.7591 12.4021V12.4021Z" fill="#C4C4C4"/>
<path d="M101.994 11.7677V12.3096H99.4844V8.49805H101.994V9.03997H100.112V10.1178H101.913V10.6236H100.112V11.7677H101.994Z" fill="#C4C4C4"/>
<path d="M104.919 9.60756C104.913 9.44649 104.944 9.28618 105.009 9.13758C105.074 8.98898 105.171 8.85558 105.295 8.7465C105.557 8.51815 105.902 8.39713 106.255 8.4093C106.598 8.39594 106.933 8.50541 107.196 8.71639C107.316 8.81165 107.411 8.93154 107.475 9.0671C107.539 9.20265 107.57 9.35036 107.567 9.49917C107.563 9.71272 107.498 9.92114 107.378 10.1013C107.181 10.3856 106.952 10.6481 106.694 10.8841L105.81 11.7391V11.7813H107.629V12.3112H104.919V11.8837L106.261 10.5409C106.456 10.3559 106.632 10.1543 106.789 9.93874C106.873 9.81523 106.919 9.67101 106.92 9.52326C106.922 9.43981 106.904 9.35704 106.869 9.28098C106.833 9.20493 106.78 9.13752 106.713 9.08369C106.571 8.96579 106.387 8.90349 106.199 8.90907C106.101 8.90465 106.004 8.91888 105.912 8.95093C105.821 8.98298 105.737 9.03221 105.665 9.09574C105.597 9.1596 105.543 9.23653 105.507 9.32157C105.472 9.40661 105.455 9.49788 105.458 9.58949H104.919V9.60756Z" fill="#C4C4C4"/>
<path d="M110.1 12.4005C109.888 12.4086 109.677 12.3647 109.487 12.2731C109.297 12.1815 109.134 12.0451 109.015 11.8767C108.73 11.4348 108.595 10.9198 108.625 10.4015C108.594 9.88497 108.73 9.37185 109.015 8.93228C109.139 8.76929 109.301 8.6367 109.489 8.54529C109.676 8.45389 109.883 8.40625 110.094 8.40625C110.304 8.40625 110.512 8.45389 110.699 8.54529C110.887 8.6367 111.049 8.76929 111.173 8.93228C111.458 9.37387 111.594 9.88905 111.562 10.4075C111.593 10.9259 111.458 11.441 111.173 11.8827C111.054 12.0482 110.893 12.1823 110.705 12.2728C110.518 12.3632 110.31 12.4072 110.1 12.4005ZM109.473 11.4973C109.528 11.6126 109.616 11.7103 109.727 11.7788C109.839 11.8473 109.968 11.8837 110.1 11.8837C110.232 11.8837 110.362 11.8473 110.473 11.7788C110.584 11.7103 110.673 11.6126 110.728 11.4973C110.888 11.1515 110.959 10.7734 110.935 10.3954C110.956 10.0184 110.881 9.64203 110.715 9.29958C110.66 9.18428 110.572 9.08657 110.46 9.01808C110.349 8.94958 110.22 8.91316 110.088 8.91316C109.955 8.91316 109.826 8.94958 109.715 9.01808C109.603 9.08657 109.515 9.18428 109.46 9.29958C109.291 9.64119 109.213 10.0178 109.234 10.3954C109.216 10.7755 109.296 11.1539 109.466 11.4973H109.473Z" fill="#C4C4C4"/>
<path d="M114.049 12.4005C113.837 12.4086 113.626 12.3647 113.436 12.2731C113.246 12.1815 113.084 12.0451 112.964 11.8767C112.68 11.4348 112.544 10.9198 112.575 10.4015C112.543 9.88493 112.679 9.3717 112.964 8.93228C113.088 8.76929 113.25 8.6367 113.438 8.54529C113.625 8.45389 113.833 8.40625 114.043 8.40625C114.253 8.40625 114.461 8.45389 114.648 8.54529C114.836 8.6367 114.998 8.76929 115.122 8.93228C115.407 9.37387 115.543 9.88905 115.511 10.4075C115.543 10.9259 115.407 11.4411 115.122 11.8827C115.003 12.0482 114.842 12.1823 114.655 12.2728C114.467 12.3632 114.259 12.4072 114.049 12.4005ZM113.422 11.4973C113.477 11.6126 113.565 11.7103 113.677 11.7788C113.788 11.8473 113.917 11.8837 114.049 11.8837C114.182 11.8837 114.311 11.8473 114.422 11.7788C114.533 11.7103 114.622 11.6126 114.677 11.4973C114.838 11.1514 114.909 10.7734 114.884 10.3954C114.906 10.0184 114.83 9.64203 114.664 9.29958C114.609 9.18428 114.521 9.08657 114.41 9.01808C114.298 8.94958 114.169 8.91316 114.037 8.91316C113.905 8.91316 113.775 8.94958 113.664 9.01808C113.553 9.08657 113.464 9.18428 113.409 9.29958C113.24 9.64119 113.163 10.0178 113.183 10.3954C113.165 10.7755 113.245 11.1539 113.416 11.4973H113.422Z" fill="#C4C4C4"/>
<path d="M117.47 10.5952V10.1075H117.953C118.143 10.1157 118.329 10.0556 118.474 9.93895C118.541 9.88541 118.594 9.81806 118.63 9.74194C118.666 9.66583 118.683 9.58292 118.681 9.49942C118.684 9.4187 118.669 9.33832 118.635 9.2643C118.601 9.19027 118.551 9.12451 118.487 9.07193C118.339 8.95896 118.154 8.90119 117.966 8.90936C117.775 8.90082 117.588 8.95855 117.439 9.07193C117.37 9.12657 117.315 9.19455 117.276 9.27137C117.237 9.34819 117.215 9.43209 117.213 9.51748H116.623C116.625 9.36201 116.662 9.20876 116.73 9.06768C116.798 8.9266 116.896 8.80085 117.018 8.69862C117.293 8.50947 117.622 8.40771 117.96 8.40771C118.297 8.40771 118.627 8.50947 118.901 8.69862C119.018 8.78209 119.114 8.89104 119.179 9.0166C119.245 9.14216 119.278 9.28077 119.277 9.42114C119.289 9.63768 119.22 9.85122 119.083 10.0232C118.953 10.1821 118.768 10.2911 118.562 10.3303V10.3725C118.802 10.3928 119.026 10.498 119.189 10.6675C119.343 10.8335 119.428 11.0477 119.428 11.2696C119.436 11.4847 119.37 11.6962 119.24 11.8717C119.106 12.0498 118.923 12.1893 118.713 12.2751C118.48 12.3765 118.227 12.4278 117.972 12.4256C117.606 12.4407 117.246 12.332 116.956 12.1185C116.827 12.0199 116.723 11.8954 116.651 11.7539C116.578 11.6124 116.539 11.4574 116.535 11.2997H117.125C117.133 11.3869 117.161 11.4715 117.206 11.5474C117.252 11.6233 117.314 11.6888 117.389 11.7392C117.562 11.8535 117.769 11.9105 117.978 11.9018C118.193 11.9105 118.404 11.8466 118.575 11.7212C118.639 11.671 118.692 11.6093 118.731 11.5395C118.77 11.4696 118.794 11.3931 118.802 11.3142C118.81 11.2353 118.802 11.1557 118.778 11.0798C118.754 11.004 118.715 10.9334 118.662 10.8722L118.575 10.7879C118.393 10.6616 118.171 10.5998 117.947 10.6133L117.47 10.5952Z" fill="#C4C4C4"/>
<path d="M2.23852 8.79771C2.6003 9.41952 3.02426 9.91131 3.5104 10.2731C3.99655 10.6236 4.52226 10.7988 5.08754 10.7988C5.44932 10.7988 5.74892 10.7197 5.98634 10.5614C6.22376 10.4031 6.34247 10.1657 6.34247 9.84913C6.34247 9.62302 6.27463 9.43082 6.13897 9.27254C6.0146 9.11426 5.78284 8.95598 5.44367 8.79771C5.11581 8.63943 4.64662 8.44723 4.03612 8.22112C3.75347 8.10806 3.42561 7.96109 3.05252 7.7802C2.69074 7.588 2.34027 7.34493 2.0011 7.05098C1.67324 6.75704 1.39625 6.40091 1.17013 5.9826C0.955327 5.55298 0.847923 5.04423 0.847923 4.45634C0.847923 3.71016 1.04577 3.07705 1.44147 2.55699C1.83717 2.03693 2.36288 1.64123 3.01861 1.36989C3.68564 1.09856 4.41485 0.962891 5.20625 0.962891C6.05417 0.962891 6.77773 1.09856 7.37693 1.36989C7.98744 1.62992 8.49054 1.96344 8.88624 2.37044C9.28194 2.76614 9.58719 3.16749 9.802 3.5745L7.32606 4.94813C6.78339 4.10021 6.10505 3.67625 5.29104 3.67625C4.57879 3.67625 4.22266 3.91932 4.22266 4.40546C4.22266 4.78985 4.46008 5.0951 4.93491 5.32122C5.42106 5.53603 6.04287 5.7791 6.80035 6.05043C7.69349 6.35568 8.42271 6.80791 8.98799 7.40711C9.55327 7.995 9.83591 8.76379 9.83591 9.71346C9.83591 10.3466 9.7059 10.9062 9.44587 11.3924C9.18584 11.8785 8.83536 12.2855 8.39444 12.6134C7.96483 12.9299 7.47303 13.1673 6.91906 13.3256C6.37638 13.4952 5.8111 13.58 5.22321 13.58C4.4092 13.58 3.65172 13.4387 2.95077 13.156C2.26113 12.8734 1.66193 12.4947 1.15318 12.0198C0.644422 11.545 0.26003 11.0136 0 10.4257L2.23852 8.79771Z" fill="#C4C4C4"/>
<path d="M11.6748 1.26814H14.9648V5.47384H19.6453V1.26814H22.9353V13.1391H19.6453V8.40766H14.9648V13.1391H11.6748V1.26814Z" fill="#C4C4C4"/>
<path d="M24.6925 7.20361C24.6925 6.26524 24.8564 5.41732 25.1843 4.65984C25.5234 3.89105 25.987 3.23533 26.5748 2.69265C27.1627 2.13868 27.8524 1.71472 28.6438 1.42077C29.4352 1.11552 30.2888 0.962891 31.2045 0.962891C32.1429 0.962891 33.0021 1.11552 33.7822 1.42077C34.5736 1.71472 35.2632 2.13868 35.8511 2.69265C36.439 3.23533 36.8913 3.89105 37.2078 4.65984C37.5357 5.41732 37.6996 6.26524 37.6996 7.20361C37.6996 8.13067 37.5413 8.98425 37.2248 9.76434C36.9082 10.5444 36.456 11.2228 35.8681 11.7994C35.2915 12.3646 34.6075 12.8056 33.8161 13.1221C33.0247 13.4274 32.1542 13.58 31.2045 13.58C30.2548 13.58 29.3843 13.4274 28.5929 13.1221C27.8015 12.8056 27.1119 12.3646 26.524 11.7994C25.9474 11.2228 25.4952 10.5444 25.1673 9.76434C24.8507 8.98425 24.6925 8.13067 24.6925 7.20361ZM28.1859 7.20361C28.1859 8.16459 28.4572 8.95033 28.9999 9.56084C29.5539 10.16 30.2888 10.4596 31.2045 10.4596C32.1203 10.4596 32.8438 10.16 33.3752 9.56084C33.9179 8.95033 34.1892 8.16459 34.1892 7.20361C34.1892 6.23132 33.9292 5.44558 33.4091 4.84638C32.8891 4.24718 32.1542 3.94758 31.2045 3.94758C30.2888 3.94758 29.5539 4.24718 28.9999 4.84638C28.4572 5.44558 28.1859 6.23132 28.1859 7.20361Z" fill="#C4C4C4"/>
<path d="M45.451 8.96729V6.49135H51.5899C51.6578 7.46364 51.5673 8.3794 51.3186 9.23863C51.0812 10.0979 50.6968 10.8553 50.1654 11.5111C49.634 12.1555 48.967 12.6642 48.1643 13.0373C47.3729 13.3991 46.4572 13.58 45.417 13.58C44.1282 13.58 42.9807 13.3143 41.9745 12.7829C40.9796 12.2516 40.1938 11.5111 39.6172 10.5614C39.052 9.60041 38.7693 8.48115 38.7693 7.20361C38.7693 6.24263 38.9389 5.37775 39.2781 4.60896C39.6172 3.84018 40.0921 3.18445 40.7026 2.64178C41.3244 2.09911 42.048 1.68645 42.8733 1.40381C43.6986 1.10986 44.5917 0.962891 45.5527 0.962891C46.4232 0.962891 47.1977 1.09291 47.876 1.35294C48.5543 1.60166 49.1535 1.94648 49.6736 2.3874C50.1937 2.81702 50.6459 3.30881 51.0303 3.86279L48.0117 5.30426C47.7743 4.87464 47.4634 4.51287 47.079 4.21892C46.6946 3.92497 46.1858 3.778 45.5527 3.778C44.9422 3.778 44.3826 3.91367 43.8738 4.185C43.3764 4.44503 42.975 4.82942 42.6698 5.33818C42.3758 5.84693 42.2288 6.46874 42.2288 7.20361C42.2288 8.30026 42.5341 9.17079 43.1446 9.81521C43.7664 10.4483 44.5691 10.7649 45.5527 10.7649C46.3328 10.7649 46.9433 10.5953 47.3842 10.2561C47.8364 9.91696 48.1587 9.48735 48.3509 8.96729H45.451Z" fill="#C4C4C4"/>
<path d="M52.7799 7.20361C52.7799 6.26524 52.9439 5.41732 53.2717 4.65984C53.6109 3.89105 54.0744 3.23533 54.6623 2.69265C55.2502 2.13868 55.9399 1.71472 56.7312 1.42077C57.5226 1.11552 58.3762 0.962891 59.292 0.962891C60.2303 0.962891 61.0896 1.11552 61.8697 1.42077C62.6611 1.71472 63.3507 2.13868 63.9386 2.69265C64.5265 3.23533 64.9787 3.89105 65.2953 4.65984C65.6231 5.41732 65.7871 6.26524 65.7871 7.20361C65.7871 8.13067 65.6288 8.98425 65.3122 9.76434C64.9957 10.5444 64.5435 11.2228 63.9556 11.7994C63.379 12.3646 62.695 12.8056 61.9036 13.1221C61.1122 13.4274 60.2417 13.58 59.292 13.58C58.3423 13.58 57.4718 13.4274 56.6804 13.1221C55.889 12.8056 55.1993 12.3646 54.6114 11.7994C54.0349 11.2228 53.5826 10.5444 53.2548 9.76434C52.9382 8.98425 52.7799 8.13067 52.7799 7.20361ZM56.2734 7.20361C56.2734 8.16459 56.5447 8.95033 57.0874 9.56084C57.6414 10.16 58.3762 10.4596 59.292 10.4596C60.2077 10.4596 60.9313 10.16 61.4627 9.56084C62.0053 8.95033 62.2767 8.16459 62.2767 7.20361C62.2767 6.23132 62.0166 5.44558 61.4966 4.84638C60.9765 4.24718 60.2417 3.94758 59.292 3.94758C58.3762 3.94758 57.6414 4.24718 57.0874 4.84638C56.5447 5.44558 56.2734 6.23132 56.2734 7.20361Z" fill="#C4C4C4"/>
</svg>
