<svg width="33" height="33" viewBox="0 0 33 33" fill="none" xmlns="http://www.w3.org/2000/svg">
<path fill-rule="evenodd" clip-rule="evenodd" d="M2.26481 2.26481C0 4.52961 0 8.17473 0 15.4651V16.7538C0 24.0441 0 27.6892 2.26481 29.9541C4.52961 32.2189 8.17473 32.2189 15.4651 32.2189H16.7538C24.0441 32.2189 27.6892 32.2189 29.9541 29.9541C32.2189 27.6892 32.2189 24.0441 32.2189 16.7538V15.4651C32.2189 8.17473 32.2189 4.52961 29.9541 2.26481C27.6892 0 24.0441 0 16.7538 0H15.4651C8.17473 0 4.52961 0 2.26481 2.26481ZM5.4375 9.7998C5.61202 18.1767 9.80041 23.2109 17.1436 23.2109H17.5599V18.4184C20.2583 18.6868 22.2986 20.6603 23.1175 23.2109H26.9302C25.8831 19.3983 23.1309 17.2907 21.4126 16.4852C23.1309 15.4918 25.5473 13.0754 26.1246 9.7998H22.661C21.9092 12.4579 19.681 14.8743 17.5599 15.1025V9.7998H14.0963V19.0896C11.9483 18.5526 9.23664 15.9482 9.11582 9.7998H5.4375Z" fill="#0177FF"/>
</svg>
