<svg width="82" height="31" viewBox="0 0 82 31" fill="none" xmlns="http://www.w3.org/2000/svg">
<g clip-path="url(#clip0_77_1362)">
<path d="M25.2099 4.28535C22.4801 1.50794 18.7067 0.00012207 14.8529 0.00012207C6.66384 0.00012207 0.0803372 6.58666 0.160559 14.6016C0.160559 17.141 0.883133 19.6012 2.0875 21.8231L0 29.3619L7.78776 27.378C9.95548 28.5684 12.364 29.1239 14.7727 29.1239C22.8816 29.1239 29.4651 22.5373 29.4651 14.5224C29.4651 10.6339 27.9396 6.98347 25.21 4.28535H25.2099ZM14.8529 26.6639C12.6852 26.6639 10.5175 26.1085 8.67089 24.9975L8.18921 24.7594L3.53265 25.9497L4.7369 21.4265L4.41578 20.9503C0.883133 15.316 2.56918 7.85637 8.34977 4.36464C14.1304 0.873026 21.597 2.53954 25.1297 8.25318C28.6622 13.9668 26.9761 21.347 21.1957 24.8387C19.3489 26.029 17.101 26.6638 14.8529 26.6638V26.6639ZM21.9181 17.8555L21.035 17.4587C21.035 17.4587 19.7505 16.9032 18.9476 16.5063C18.8673 16.5063 18.787 16.4269 18.7067 16.4269C18.4658 16.4269 18.3053 16.5063 18.1447 16.5858C18.1447 16.5858 18.0645 16.665 16.9404 17.9348C16.8601 18.0935 16.6995 18.1729 16.539 18.1729H16.4586C16.3784 18.1729 16.2179 18.0935 16.1375 18.0142L15.7361 17.8555C14.8529 17.4587 14.0501 16.9824 13.4078 16.3477C13.2472 16.1889 13.0063 16.0303 12.8458 15.8716C12.2838 15.316 11.7217 14.6811 11.3204 13.9669L11.2401 13.8082C11.1598 13.7288 11.1598 13.6495 11.0795 13.4908C11.0795 13.3321 11.0795 13.1734 11.1598 13.094C11.1598 13.094 11.481 12.6972 11.7217 12.4592C11.8824 12.3004 11.9626 12.0624 12.1232 11.9037C12.2838 11.6656 12.3641 11.3482 12.2838 11.1101C12.2035 10.7133 11.2401 8.57069 10.9993 8.09459C10.8386 7.85649 10.6782 7.77719 10.4373 7.69779H9.55414C9.39346 7.69779 9.23302 7.77719 9.07234 7.77719L8.99201 7.85649C8.83145 7.93589 8.67089 8.09459 8.51033 8.17389C8.34977 8.3327 8.26943 8.49129 8.10888 8.6501C7.54686 9.3643 7.22574 10.2372 7.22574 11.1101C7.22574 11.7449 7.3863 12.3798 7.6272 12.9353L7.70753 13.1734C8.43011 14.6811 9.39346 16.0303 10.6782 17.2206L10.9993 17.538C11.2401 17.7761 11.481 17.9348 11.6415 18.1728C13.3276 19.6013 15.2544 20.6329 17.4221 21.1884C17.663 21.2677 17.9841 21.2677 18.225 21.3471H19.0278C19.4293 21.3471 19.911 21.1884 20.2322 21.0297C20.473 20.871 20.6335 20.871 20.7941 20.7123L20.9548 20.5535C21.1153 20.3948 21.2759 20.3155 21.4364 20.1568C21.597 19.9981 21.7576 19.8394 21.8379 19.6806C21.9985 19.3632 22.0787 18.9664 22.159 18.5697V18.0142C22.159 18.0142 22.0787 17.9348 21.9181 17.8555Z" fill="#00C900"/>
</g>
<path d="M72.1631 9.03704C72.1631 9.03704 73.611 8.47241 73.4899 9.84355C73.45 10.4082 73.0881 12.3846 72.8063 14.522L71.8411 20.854C71.8411 20.854 71.7606 21.7816 71.0364 21.943C70.3127 22.104 69.2266 21.3784 69.0254 21.217C68.8644 21.0959 66.0088 19.2809 65.0033 18.3939C64.7215 18.1516 64.3995 17.6679 65.0435 17.1032L69.2665 13.0699C69.7492 12.5862 70.2318 11.4569 68.2207 12.8281L62.5894 16.6594C62.5894 16.6594 61.9457 17.063 60.7393 16.7L58.1245 15.8931C58.1245 15.8931 57.1592 15.2882 58.8084 14.6833C62.8309 12.7878 67.7784 10.8521 72.1623 9.03704H72.1631Z" fill="#2C75FF"/>
<path d="M66.7233 1.05231C74.5694 1.05231 80.9295 7.41239 80.9295 15.2585C80.9295 23.1046 74.5694 29.4646 66.7233 29.4646C58.8772 29.4646 52.5172 23.1046 52.5172 15.2585C52.5172 7.41239 58.8772 1.05231 66.7233 1.05231Z" stroke="#2C75FF" stroke-width="2.10462"/>
<defs>
<clipPath id="clip0_77_1362">
<rect width="29.4646" height="29.4646" fill="white"/>
</clipPath>
</defs>
</svg>
