<svg width="41" height="29" viewBox="0 0 41 29" fill="none" xmlns="http://www.w3.org/2000/svg">
<path d="M39.9039 4.76684C39.6719 3.90706 39.2169 3.12312 38.5846 2.4936C37.9524 1.86407 37.165 1.41107 36.3015 1.18C33.1198 0.329102 20.3797 0.329102 20.3797 0.329102C20.3797 0.329102 7.63972 0.329102 4.458 1.18C3.59449 1.41107 2.80714 1.86407 2.17487 2.4936C1.54261 3.12312 1.08764 3.90706 0.85556 4.76684C0.267211 7.98864 -0.0188861 11.2579 0.000966257 14.5325C-0.0188861 17.8071 0.267211 21.0763 0.85556 24.2981C1.08764 25.1579 1.54261 25.9419 2.17487 26.5714C2.80714 27.2009 3.59449 27.6539 4.458 27.885C7.63972 28.7359 20.3797 28.7359 20.3797 28.7359C20.3797 28.7359 33.1198 28.7359 36.3015 27.885C37.165 27.6539 37.9524 27.2009 38.5846 26.5714C39.2169 25.9419 39.6719 25.1579 39.9039 24.2981C40.4923 21.0763 40.7784 17.8071 40.7585 14.5325C40.7784 11.2579 40.4923 7.98864 39.9039 4.76684ZM16.304 20.6197V8.44533L26.8878 14.5325L16.304 20.6197Z" fill="#FF0000"/>
</svg>
